<?xml version="1.0" encoding="UTF-8" standalone="no"?>
<!DOCTYPE svg PUBLIC "-//W3C//DTD SVG 1.1//EN" "http://www.w3.org/Graphics/SVG/1.1/DTD/svg11.dtd">
<svg version="1.1" xmlns="http://www.w3.org/2000/svg" xmlns:xlink="http://www.w3.org/1999/xlink" preserveAspectRatio="xMidYMid meet" viewBox="0 0 300 249" width="300" height="249"><defs><path d="M273.44 124.5C273.44 187.42 221.68 238.51 157.94 238.51C94.19 238.51 42.44 187.42 42.44 124.5C42.44 61.58 94.19 10.49 157.94 10.49C221.68 10.49 273.44 61.58 273.44 124.5Z" id="b4trLhd0rz"></path><path d="M158.83 37.95L160.33 38.1L161.82 38.31L163.29 38.58L164.74 38.9L166.16 39.28L167.56 39.72L168.94 40.21L170.3 40.74L171.62 41.33L172.92 41.97L174.19 42.66L175.43 43.39L176.64 44.17L177.81 45L178.95 45.86L180.06 46.77L181.13 47.72L182.16 48.71L183.16 49.74L184.11 50.81L185.03 51.91L185.9 53.04L186.73 54.21L187.51 55.41L188.25 56.65L188.94 57.91L189.58 59.2L190.17 60.52L190.71 61.87L191.2 63.24L191.64 64.64L192.02 66.06L192.35 67.5L192.45 68.04L192.65 68.05L193.89 68.37L195.06 68.89L196.14 69.58L197.12 70.44L197.99 71.44L198.73 72.58L199.33 73.83L199.78 75.18L200.06 76.61L200.15 78.11L200.06 79.61L199.78 81.05L199.33 82.4L198.73 83.65L197.99 84.78L197.12 85.79L196.14 86.64L195.06 87.34L193.89 87.85L192.65 88.17L191.34 88.28L190.66 88.23L190.17 89.44L189.58 90.76L188.94 92.05L188.25 93.32L187.51 94.55L186.73 95.75L185.9 96.92L185.03 98.06L184.11 99.16L183.16 100.23L182.16 101.26L181.13 102.24L180.06 103.19L178.95 104.1L177.81 104.97L176.64 105.79L175.43 106.57L174.19 107.31L172.92 107.99L171.62 108.63L170.3 109.22L168.94 109.76L167.56 110.25L166.16 110.68L164.74 111.06L163.29 111.39L161.82 111.66L160.33 111.87L158.83 112.02L157.31 112.11L155.77 112.14L154.23 112.11L152.71 112.02L151.2 111.87L149.71 111.66L148.25 111.39L146.8 111.06L145.37 110.68L143.97 110.25L142.59 109.76L141.24 109.22L139.91 108.63L138.61 107.99L137.34 107.31L136.1 106.57L134.9 105.79L133.72 104.97L132.58 104.1L131.47 103.19L130.4 102.24L129.37 101.26L128.38 100.23L127.42 99.16L126.51 98.06L125.64 96.92L124.81 95.75L124.03 94.55L123.29 93.32L122.6 92.05L121.96 90.76L121.36 89.44L121.13 88.87L120.79 88.96L119.48 89.07L118.18 88.96L116.94 88.63L115.77 88.12L114.69 87.43L113.71 86.57L112.84 85.57L112.1 84.43L111.5 83.18L111.05 81.83L110.77 80.4L110.68 78.9L110.77 77.39L111.05 75.96L111.5 74.61L112.1 73.36L112.84 72.22L113.71 71.22L114.69 70.36L115.77 69.67L116.94 69.16L118.18 68.84L118.95 68.77L119.19 67.5L119.51 66.06L119.9 64.64L120.33 63.24L120.82 61.87L121.36 60.52L121.96 59.2L122.6 57.91L123.29 56.65L124.03 55.41L124.81 54.21L125.64 53.04L126.51 51.91L127.42 50.81L128.38 49.74L129.37 48.71L130.4 47.72L131.47 46.77L132.58 45.86L133.72 45L134.9 44.17L136.1 43.39L137.34 42.66L138.61 41.97L139.91 41.33L141.24 40.74L142.59 40.21L143.97 39.72L145.37 39.28L146.8 38.9L148.25 38.58L149.71 38.31L151.2 38.1L152.71 37.95L154.23 37.85L155.77 37.82L157.31 37.85L158.83 37.95Z" id="g3lQXbSTUS"></path><path d="M143.9 37.98L144.91 38.44L145.94 39.06L147 39.82L148.09 40.72L149.25 41.73L150.48 42.85L151.28 43.58L152.03 43.14L153.32 42.73L154.76 42.58L156.2 42.73L157.5 43.14L158.6 43.78L158.95 44.13L159.04 44.05L160.35 42.85L161.58 41.73L162.74 40.72L163.83 39.82L164.89 39.06L165.91 38.44L166.93 37.98L167.95 37.69L168.99 37.6L170.03 37.69L171.02 37.98L171.95 38.44L172.82 39.06L173.6 39.82L174.29 40.72L174.88 41.73L175.36 42.85L175.71 44.05L175.94 45.33L176.01 46.67L175.94 48.01L175.71 49.29L175.36 50.5L174.88 51.61L174.29 52.63L173.6 53.52L172.82 54.29L171.95 54.9L171.02 55.36L170.03 55.65L168.99 55.75L167.95 55.65L166.93 55.36L165.91 54.9L164.89 54.29L163.83 53.52L162.74 52.63L161.58 51.61L160.35 50.5L159.04 49.29L158.95 49.22L158.6 49.57L157.5 50.21L156.2 50.62L154.76 50.76L153.32 50.62L152.03 50.21L151.28 49.77L150.48 50.5L149.25 51.61L148.09 52.63L147 53.52L145.94 54.29L144.91 54.9L143.9 55.36L142.88 55.65L141.84 55.75L140.8 55.65L139.81 55.36L138.88 54.9L138.01 54.29L137.23 53.52L136.54 52.63L135.95 51.61L135.47 50.5L135.12 49.29L134.89 48.01L134.82 46.67L134.89 45.33L135.12 44.05L135.47 42.85L135.95 41.73L136.54 40.72L137.23 39.82L138.01 39.06L138.88 38.44L139.81 37.98L140.8 37.69L141.84 37.6L142.88 37.69L143.9 37.98Z" id="b50REdlzA"></path><path d="M144.29 77.66C144.29 80.09 142.63 82.07 140.59 82.07C138.55 82.07 136.89 80.09 136.89 77.66C136.89 75.23 138.55 73.26 140.59 73.26C142.63 73.26 144.29 75.23 144.29 77.66Z" id="a1q8ebrrWf"></path><path d="M135.14 71.54L140.59 74.98" id="a2sWKr4pGM"></path><path d="M136.89 71.85L139.71 74.83" id="c34i5a2Ez2"></path><path d="M135.77 73.34L137.87 75.64" id="a4dX94vihX"></path><path d="M164.69 85.43L164.37 86.84L163.94 88.18L163.4 89.44L162.76 90.61L162.02 91.68L161.2 92.64L160.31 93.48L159.35 94.19L158.32 94.76L157.24 95.17L156.11 95.43L154.95 95.52L153.78 95.43L152.65 95.17L151.57 94.76L150.55 94.19L149.58 93.48L148.69 92.64L147.87 91.68L147.14 90.61L146.5 89.44L145.96 88.18L145.92 88.06L146.63 88.66L147.67 89.37L148.78 89.98L149.94 90.46L151.15 90.81L152.4 91.03L153.7 91.1L154.99 91.03L156.24 90.81L157.46 90.46L158.62 89.98L159.72 89.37L160.77 88.66L161.74 87.84L162.64 86.91L163.45 85.9L164.18 84.8L164.82 83.62L164.91 83.4L164.89 83.95L164.69 85.43Z" id="cIk3TJPVg"></path><path d="M190.79 91.46C210.33 91.46 226.16 107.25 226.16 126.72C226.17 180.65 155.42 207.41 155.42 208.89C155.42 208.89 155.42 208.89 155.42 208.89C155.42 207.41 84.66 180.65 84.66 126.72C84.66 107.25 100.5 91.46 120.04 91.46C139.58 91.46 155.42 105.29 155.41 124.77C155.41 105.29 171.25 91.46 190.79 91.46Z" id="fkR3AoNO1"></path><path d="M108.37 92.76L108.99 93.15L108.97 92.87L110.62 94.1L112.1 95.16L113.42 96.12L114.58 97.03L115.58 97.94L116.43 98.91L117.14 99.98L117.67 101.13L117.99 102.29L118.1 103.4L118.02 104.42L117.73 105.33L117.25 106.07L116.58 106.61L115.77 106.89L114.88 106.9L114 106.68L113.99 106.71L113.78 107.43L113.9 107.6L114.41 108.68L114.72 109.75L114.81 110.78L114.69 111.72L114.34 112.53L113.78 113.18L113.02 113.6L112.16 113.77L111.21 113.69L110.23 113.39L110.08 113.31L109.91 113.47L109.85 113.51L110.04 113.84L110.31 114.75L110.33 115.63L110.07 116.45L109.56 117.14L108.84 117.65L107.94 117.97L106.92 118.09L105.81 118.02L104.65 117.74L103.47 117.26L102.37 116.59L101.7 116.03L101.53 116.02L100.28 115.77L99.78 115.6L99.63 115.89L99.02 116.54L98.27 116.95L97.42 117.09L96.55 116.95L95.69 116.56L94.86 115.93L94.12 115.11L93.48 114.1L92.97 112.93L92.65 111.69L92.5 110.41L92.5 109.05L92.57 108.03L92.5 107.85L92.18 106.52L92 105.13L91.96 103.69L92.07 102.25L92.33 100.87L92.72 99.54L93.24 98.28L93.88 97.1L94.62 96L95.47 95L96.41 94.11L97.43 93.33L98.53 92.67L99.69 92.15L100.91 91.76L102.18 91.53L103.48 91.46L104.79 91.55L106.04 91.81L107.24 92.21L107.24 92.21L108.37 92.76Z" id="a1OR2xvb1y"></path><path d="M122.69 167.15L123.29 167.79L123.78 168.61L124.15 169.57L124.39 170.66L124.48 171.85L124.47 172.18L124.99 171.19L125.69 170.19L126.45 169.32L127.28 168.6L128.14 168.05L129.03 167.68L129.93 167.49L130.82 167.51L131.69 167.73L132.49 168.17L133.18 168.78L133.76 169.55L134.21 170.45L134.55 171.48L134.75 172.6L134.82 173.8L134.75 175.05L134.53 176.34L134.17 177.64L133.67 178.9L133.05 180.08L132.31 181.21L131.46 182.33L130.5 183.44L129.43 184.6L129.15 184.89L129.22 185.19L129.43 186.61L129.56 188.06L129.6 189.56L129.55 191.08L129.41 192.63L129.17 194.19L128.85 195.74L128.44 197.24L127.95 198.69L127.39 200.08L126.77 201.41L126.07 202.67L125.32 203.85L124.51 204.96L123.65 206L122.75 206.94L121.8 207.8L120.81 208.57L119.79 209.24L118.74 209.81L117.66 210.27L116.57 210.62L115.46 210.86L114.33 210.98L113.2 210.98L112.07 210.85L110.96 210.59L109.9 210.21L108.88 209.73L107.92 209.13L107.02 208.43L106.17 207.64L105.38 206.75L104.65 205.78L103.99 204.73L103.4 203.6L102.88 202.41L102.43 201.15L102.06 199.83L101.77 198.46L101.56 197.05L101.43 195.59L101.39 194.1L101.44 192.58L101.58 191.03L101.81 189.46L102.14 187.91L102.55 186.41L103.03 184.96L103.59 183.58L103.87 182.98L103.85 182.95L103 181.71L102.45 180.38L102.26 178.95L102.43 177.66L102.92 176.63L103.7 176.02L104.62 175.95L105.51 176.41L106.27 177.33L106.29 177.37L106.27 177.24L106.22 175.96L106.33 174.68L106.59 173.51L106.98 172.47L107.48 171.59L108.07 170.92L108.73 170.49L109.44 170.32L110.14 170.45L110.78 170.85L111.34 171.49L111.63 172.02L112 171.03L112.5 170.15L113.09 169.48L113.75 169.05L114.46 168.88L115.16 169.01L115.8 169.41L116.36 170.05L116.82 170.9L116.83 170.94L117.15 169.95L117.64 168.94L118.22 168.06L118.89 167.36L119.63 166.86L120.41 166.57L121.22 166.52L121.99 166.72L122.69 167.15Z" id="cXOoT0rmG"></path><path d="M212.18 84.9L212.86 85.46L213.02 85.47L214.28 85.73L214.78 85.9L214.93 85.6L215.53 84.96L216.29 84.54L217.14 84.41L218.01 84.54L218.87 84.94L219.69 85.56L220.44 86.39L221.08 87.4L221.59 88.56L221.91 89.8L222.06 91.08L222.06 92.44L221.99 93.47L222.05 93.64L222.38 94.98L222.56 96.37L222.6 97.8L222.49 99.24L222.23 100.63L221.84 101.96L221.32 103.21L220.68 104.4L219.93 105.49L219.09 106.49L218.15 107.39L217.13 108.17L216.03 108.82L214.87 109.35L213.65 109.73L212.38 109.96L211.07 110.03L209.77 109.94L208.51 109.69L207.32 109.28L206.18 108.74L205.57 108.35L205.59 108.62L203.94 107.4L202.46 106.33L201.14 105.37L199.98 104.46L198.98 103.55L198.12 102.59L197.42 101.52L196.89 100.36L196.57 99.21L196.45 98.1L196.54 97.07L196.82 96.17L197.3 95.43L197.98 94.89L198.79 94.61L199.67 94.59L200.56 94.82L200.57 94.79L200.78 94.07L200.66 93.89L200.14 92.81L199.84 91.74L199.74 90.72L199.87 89.78L200.21 88.96L200.78 88.32L201.53 87.9L202.4 87.73L203.34 87.8L204.33 88.11L204.48 88.19L204.64 88.03L204.7 87.98L204.52 87.66L204.25 86.75L204.23 85.86L204.48 85.04L205 84.35L205.72 83.84L206.61 83.53L207.64 83.4L208.75 83.48L209.91 83.75L211.09 84.24L211.09 84.24L212.18 84.9Z" id="a7AGAqqTL"></path><path d="M189.68 164.77L190.41 165.27L191.08 165.97L191.67 166.85L192.16 167.86L192.47 168.85L192.49 168.81L192.94 167.96L193.5 167.32L194.14 166.92L194.85 166.79L195.56 166.96L196.22 167.39L196.81 168.06L197.31 168.94L197.68 169.93L197.97 169.4L198.52 168.76L199.16 168.36L199.87 168.23L200.58 168.4L201.24 168.83L201.83 169.5L202.33 170.38L202.72 171.42L202.98 172.59L203.09 173.87L203.04 175.15L203.02 175.28L203.03 175.24L203.8 174.32L204.69 173.86L205.61 173.93L206.38 174.54L206.87 175.57L207.04 176.86L206.85 178.29L206.3 179.62L205.46 180.86L205.43 180.89L205.71 181.49L206.27 182.87L206.76 184.32L207.17 185.82L207.49 187.37L207.73 188.94L207.87 190.49L207.92 192.01L207.88 193.5L207.75 194.96L207.54 196.37L207.24 197.74L206.87 199.06L206.42 200.32L205.9 201.51L205.31 202.64L204.65 203.69L203.93 204.66L203.14 205.55L202.29 206.34L201.38 207.04L200.42 207.64L199.41 208.12L198.34 208.5L197.23 208.76L196.1 208.89L194.97 208.89L193.85 208.77L192.74 208.53L191.64 208.18L190.57 207.72L189.52 207.15L188.5 206.48L187.51 205.71L186.56 204.86L185.65 203.91L184.79 202.87L183.98 201.76L183.23 200.58L182.54 199.32L181.91 197.99L181.35 196.6L180.87 195.15L180.46 193.65L180.13 192.1L179.9 190.54L179.76 188.99L179.71 187.47L179.75 185.97L179.88 184.52L180.09 183.1L180.15 182.8L179.88 182.51L178.81 181.35L177.85 180.24L177 179.12L176.26 177.99L175.64 176.81L175.14 175.55L174.77 174.25L174.56 172.96L174.49 171.71L174.56 170.51L174.76 169.39L175.09 168.36L175.55 167.46L176.12 166.69L176.81 166.08L177.61 165.64L178.48 165.42L179.37 165.4L180.27 165.59L181.16 165.96L182.03 166.51L182.85 167.23L183.62 168.1L184.31 169.1L184.84 170.09L184.82 169.76L184.91 168.57L185.15 167.48L185.52 166.52L186.02 165.7L186.62 165.06L187.31 164.63L188.09 164.43L188.9 164.48L189.68 164.77Z" id="bPQwS72SC"></path><path d="M160.3 30.1L157.05 31.73L154.36 34.33L153.28 37.65L156.34 39.95L159.6 38.33L160.44 34.96L156.75 33.43L152.96 33.86L150.51 36.51L150.39 40L151.55 43.28" id="cbBT2Czaj"></path><path d="M169.89 79.22L168.93 79.91L167.86 80.34L166.72 80.49L165.58 80.34L164.51 79.91L163.55 79.22L162.71 78.31L162.02 77.21L161.95 77.03L163 77.55L164.19 77.95L165.44 78.2L166.72 78.28L168.01 78.2L169.25 77.95L170.44 77.55L171.5 77.03L171.42 77.21L170.73 78.31L170.73 78.31L169.89 79.22Z" id="e4GphICMcn"></path></defs><g><g><use xlink:href="#b4trLhd0rz" opacity="0" fill="#ffe9e7" fill-opacity="0.55"></use><g><use xlink:href="#b4trLhd0rz" opacity="1" fill-opacity="0" stroke="#000000" stroke-width="0" stroke-opacity="1"></use></g></g><g><use xlink:href="#g3lQXbSTUS" opacity="1" fill="#f3b7cb" fill-opacity="1"></use><g><use xlink:href="#g3lQXbSTUS" opacity="1" fill-opacity="0" stroke="#000000" stroke-width="0.05" stroke-opacity="1"></use></g></g><g><use xlink:href="#b50REdlzA" opacity="1" fill="#93327f" fill-opacity="1"></use><g><use xlink:href="#b50REdlzA" opacity="1" fill-opacity="0" stroke="#80ac21" stroke-width="0.05" stroke-opacity="1"></use></g></g><g><use xlink:href="#a1q8ebrrWf" opacity="1" fill="#0b010a" fill-opacity="1"></use></g><g><g><use xlink:href="#a2sWKr4pGM" opacity="1" fill-opacity="0" stroke="#000000" stroke-width="0" stroke-opacity="1"></use></g></g><g><g><use xlink:href="#c34i5a2Ez2" opacity="1" fill-opacity="0" stroke="#000000" stroke-width="1" stroke-opacity="1"></use></g></g><g><g><use xlink:href="#a4dX94vihX" opacity="1" fill-opacity="0" stroke="#000000" stroke-width="1" stroke-opacity="1"></use></g></g><g><use xlink:href="#cIk3TJPVg" opacity="1" fill="#0b010a" fill-opacity="1"></use></g><g><use xlink:href="#fkR3AoNO1" opacity="1" fill="#93327f" fill-opacity="1"></use><g><use xlink:href="#fkR3AoNO1" opacity="1" fill-opacity="0" stroke="#000000" stroke-width="0.05" stroke-opacity="1"></use></g></g><g><use xlink:href="#a1OR2xvb1y" opacity="1" fill="#f3b7cb" fill-opacity="1"></use><g><use xlink:href="#a1OR2xvb1y" opacity="1" fill-opacity="0" stroke="#000000" stroke-width="0.05" stroke-opacity="1"></use></g></g><g><use xlink:href="#cXOoT0rmG" opacity="1" fill="#f3b7cb" fill-opacity="1"></use><g><use xlink:href="#cXOoT0rmG" opacity="1" fill-opacity="0" stroke="#000000" stroke-width="0.05" stroke-opacity="1"></use></g></g><g><use xlink:href="#a7AGAqqTL" opacity="1" fill="#f3b7cb" fill-opacity="1"></use><g><use xlink:href="#a7AGAqqTL" opacity="1" fill-opacity="0" stroke="#000000" stroke-width="0.05" stroke-opacity="1"></use></g></g><g><use xlink:href="#bPQwS72SC" opacity="1" fill="#f3b7cb" fill-opacity="1"></use><g><use xlink:href="#bPQwS72SC" opacity="1" fill-opacity="0" stroke="#000000" stroke-width="0.05" stroke-opacity="1"></use></g></g><g><g><use xlink:href="#cbBT2Czaj" opacity="1" fill-opacity="0" stroke="#000000" stroke-width="1" stroke-opacity="1"></use></g></g><g><use xlink:href="#e4GphICMcn" opacity="1" fill="#0b010a" fill-opacity="1"></use></g></g></svg>