<?xml version="1.0" encoding="utf-8"?>
<!-- Generator: Adobe Illustrator 22.0.0, SVG Export Plug-In . SVG Version: 6.00 Build 0)  -->
<svg version="1.1" id="Layer_1" xmlns="http://www.w3.org/2000/svg" xmlns:xlink="http://www.w3.org/1999/xlink" x="0px" y="0px"
	 viewBox="0 0 300 249" style="enable-background:new 0 0 300 249;" xml:space="preserve">
<style type="text/css">
	.st0{fill:#FFE9E7;fill-opacity:0.55;}
	.st1{fill-opacity:0;}
	.st2{fill:#F3B7CB;}
	.st3{fill-opacity:0;stroke:#000000;stroke-width:5.000000e-02;}
	.st4{fill:#93327F;}
	.st5{fill-opacity:0;stroke:#80AC21;stroke-width:5.000000e-02;}
	.st6{fill:#0B010A;}
	.st7{fill-opacity:0;stroke:#000000;}
</style>
<g>
	<g>
		<g>
			<path id="aWKh3Pypm" class="st0" d="M273.4,124.5c0,62.9-51.8,114-115.5,114c-63.8,0-115.5-51.1-115.5-114s51.8-114,115.5-114
				C221.7,10.5,273.4,61.6,273.4,124.5z"/>
		</g>
		<g>
			<g>
				<path id="aWKh3Pypm_1_" class="st1" d="M273.4,124.5c0,62.9-51.8,114-115.5,114c-63.8,0-115.5-51.1-115.5-114
					s51.8-114,115.5-114C221.7,10.5,273.4,61.6,273.4,124.5z"/>
			</g>
		</g>
	</g>
	<g>
		<g>
			<path id="a4Med9SOkg" class="st2" d="M158.8,37.7l1.5,0.1l1.5,0.2l1.5,0.3l1.5,0.3l1.4,0.4l1.4,0.4l1.4,0.5l1.4,0.5l1.3,0.6
				l1.3,0.6l1.3,0.7l1.2,0.7l1.2,0.8l1.2,0.8l1.1,0.9l1.1,0.9l1.1,1l1,1l1,1l0.9,1.1l0.9,1.1l0.9,1.1l0.8,1.2l0.8,1.2l0.7,1.2
				l0.7,1.3l0.6,1.3l0.6,1.3l0.5,1.3l0.5,1.4l0.4,1.4l0.4,1.4l0.3,1.4l0.1,0.5l0.2,0l1.2,0.3l1.2,0.5l1.1,0.7l1,0.8l0.9,1l0.7,1.1
				l0.6,1.2l0.4,1.3l0.3,1.4l0.1,1.5l-0.1,1.5l-0.3,1.4l-0.4,1.3l-0.6,1.2l-0.7,1.1l-0.9,1l-1,0.9l-1.1,0.7l-1.2,0.5l-1.2,0.3
				l-1.3,0.1l-0.7-0.1l-0.5,1.2l-0.6,1.3l-0.6,1.3l-0.7,1.3l-0.7,1.2l-0.8,1.2l-0.8,1.2l-0.9,1.1l-0.9,1.1l-0.9,1.1l-1,1l-1,1
				l-1.1,1l-1.1,0.9l-1.1,0.9l-1.2,0.8l-1.2,0.8l-1.2,0.7l-1.3,0.7l-1.3,0.6l-1.3,0.6l-1.4,0.5l-1.4,0.5l-1.4,0.4l-1.4,0.4l-1.5,0.3
				l-1.5,0.3l-1.5,0.2l-1.5,0.2l-1.5,0.1l-1.5,0l-1.5,0l-1.5-0.1l-1.5-0.2l-1.5-0.2l-1.5-0.3l-1.4-0.3l-1.4-0.4L144,110l-1.4-0.5
				l-1.3-0.5l-1.3-0.6l-1.3-0.6l-1.3-0.7l-1.2-0.7l-1.2-0.8l-1.2-0.8l-1.1-0.9l-1.1-0.9l-1.1-1l-1-1l-1-1l-1-1.1l-0.9-1.1l-0.9-1.1
				l-0.8-1.2l-0.8-1.2l-0.7-1.2l-0.7-1.3l-0.6-1.3l-0.6-1.3l-0.2-0.6l-0.3,0.1l-1.3,0.1l-1.3-0.1l-1.2-0.3l-1.2-0.5l-1.1-0.7l-1-0.9
				l-0.9-1l-0.7-1.1l-0.6-1.2l-0.4-1.3l-0.3-1.4l-0.1-1.5l0.1-1.5l0.3-1.4l0.4-1.4l0.6-1.2l0.7-1.1l0.9-1l1-0.8l1.1-0.7l1.2-0.5
				l1.2-0.3l0.8-0.1l0.2-1.3l0.3-1.4l0.4-1.4l0.4-1.4l0.5-1.4l0.5-1.3L122,59l0.6-1.3l0.7-1.3l0.7-1.2l0.8-1.2l0.8-1.2l0.9-1.1
				l0.9-1.1l1-1.1l1-1l1-1l1.1-1l1.1-0.9l1.1-0.9l1.2-0.8l1.2-0.8l1.2-0.7l1.3-0.7l1.3-0.6l1.3-0.6l1.3-0.5l1.4-0.5l1.4-0.4l1.4-0.4
				l1.4-0.3l1.5-0.3l1.5-0.2l1.5-0.1l1.5-0.1l1.5,0l1.5,0L158.8,37.7z"/>
		</g>
		<g>
			<g>
				<path id="a4Med9SOkg_1_" class="st3" d="M158.8,37.7l1.5,0.1l1.5,0.2l1.5,0.3l1.5,0.3l1.4,0.4l1.4,0.4l1.4,0.5l1.4,0.5l1.3,0.6
					l1.3,0.6l1.3,0.7l1.2,0.7l1.2,0.8l1.2,0.8l1.1,0.9l1.1,0.9l1.1,1l1,1l1,1l0.9,1.1l0.9,1.1l0.9,1.1l0.8,1.2l0.8,1.2l0.7,1.2
					l0.7,1.3l0.6,1.3l0.6,1.3l0.5,1.3l0.5,1.4l0.4,1.4l0.4,1.4l0.3,1.4l0.1,0.5l0.2,0l1.2,0.3l1.2,0.5l1.1,0.7l1,0.8l0.9,1l0.7,1.1
					l0.6,1.2l0.4,1.3l0.3,1.4l0.1,1.5l-0.1,1.5l-0.3,1.4l-0.4,1.3l-0.6,1.2l-0.7,1.1l-0.9,1l-1,0.9l-1.1,0.7l-1.2,0.5l-1.2,0.3
					l-1.3,0.1l-0.7-0.1l-0.5,1.2l-0.6,1.3l-0.6,1.3l-0.7,1.3l-0.7,1.2l-0.8,1.2l-0.8,1.2l-0.9,1.1l-0.9,1.1l-0.9,1.1l-1,1l-1,1
					l-1.1,1l-1.1,0.9l-1.1,0.9l-1.2,0.8l-1.2,0.8l-1.2,0.7l-1.3,0.7l-1.3,0.6l-1.3,0.6l-1.4,0.5l-1.4,0.5l-1.4,0.4l-1.4,0.4
					l-1.5,0.3l-1.5,0.3l-1.5,0.2l-1.5,0.2l-1.5,0.1l-1.5,0l-1.5,0l-1.5-0.1l-1.5-0.2l-1.5-0.2l-1.5-0.3l-1.4-0.3l-1.4-0.4L144,110
					l-1.4-0.5l-1.3-0.5l-1.3-0.6l-1.3-0.6l-1.3-0.7l-1.2-0.7l-1.2-0.8l-1.2-0.8l-1.1-0.9l-1.1-0.9l-1.1-1l-1-1l-1-1l-1-1.1l-0.9-1.1
					l-0.9-1.1l-0.8-1.2l-0.8-1.2l-0.7-1.2l-0.7-1.3l-0.6-1.3l-0.6-1.3l-0.2-0.6l-0.3,0.1l-1.3,0.1l-1.3-0.1l-1.2-0.3l-1.2-0.5
					l-1.1-0.7l-1-0.9l-0.9-1l-0.7-1.1l-0.6-1.2l-0.4-1.3l-0.3-1.4l-0.1-1.5l0.1-1.5l0.3-1.4l0.4-1.4l0.6-1.2l0.7-1.1l0.9-1l1-0.8
					l1.1-0.7l1.2-0.5l1.2-0.3l0.8-0.1l0.2-1.3l0.3-1.4l0.4-1.4l0.4-1.4l0.5-1.4l0.5-1.3L122,59l0.6-1.3l0.7-1.3l0.7-1.2l0.8-1.2
					l0.8-1.2l0.9-1.1l0.9-1.1l1-1.1l1-1l1-1l1.1-1l1.1-0.9l1.1-0.9l1.2-0.8l1.2-0.8l1.2-0.7l1.3-0.7l1.3-0.6l1.3-0.6l1.3-0.5
					l1.4-0.5l1.4-0.4l1.4-0.4l1.4-0.3l1.5-0.3l1.5-0.2l1.5-0.1l1.5-0.1l1.5,0l1.5,0L158.8,37.7z"/>
			</g>
		</g>
	</g>
	<g>
		<g>
			<path id="b2ow4JJnoY" class="st4" d="M143.9,38l1,0.5l1,0.6l1.1,0.8l1.1,0.9l1.2,1l1.2,1.1l0.8,0.7l0.8-0.4l1.3-0.4l1.4-0.1
				l1.4,0.1l1.3,0.4l1.1,0.6l0.3,0.4L159,44l1.3-1.2l1.2-1.1l1.2-1l1.1-0.9l1.1-0.8l1-0.6l1-0.5l1-0.3l1-0.1l1,0.1l1,0.3l0.9,0.5
				l0.9,0.6l0.8,0.8l0.7,0.9l0.6,1l0.5,1.1l0.4,1.2l0.2,1.3l0.1,1.3l-0.1,1.3l-0.2,1.3l-0.4,1.2l-0.5,1.1l-0.6,1l-0.7,0.9l-0.8,0.8
				l-0.9,0.6l-0.9,0.5l-1,0.3l-1,0.1l-1-0.1l-1-0.3l-1-0.5l-1-0.6l-1.1-0.8l-1.1-0.9l-1.2-1l-1.2-1.1l-1.3-1.2l-0.1-0.1l-0.3,0.3
				l-1.1,0.6l-1.3,0.4l-1.4,0.1l-1.4-0.1l-1.3-0.4l-0.8-0.4l-0.8,0.7l-1.2,1.1l-1.2,1l-1.1,0.9l-1.1,0.8l-1,0.6l-1,0.5l-1,0.3
				l-1,0.1l-1-0.1l-1-0.3l-0.9-0.5l-0.9-0.6l-0.8-0.8l-0.7-0.9l-0.6-1l-0.5-1.1l-0.4-1.2l-0.2-1.3l-0.1-1.3l0.1-1.3l0.2-1.3l0.4-1.2
				l0.5-1.1l0.6-1l0.7-0.9l0.8-0.8l0.9-0.6l0.9-0.5l1-0.3l1-0.1l1,0.1L143.9,38z"/>
		</g>
		<g>
			<g>
				<path id="b2ow4JJnoY_1_" class="st5" d="M143.9,38l1,0.5l1,0.6l1.1,0.8l1.1,0.9l1.2,1l1.2,1.1l0.8,0.7l0.8-0.4l1.3-0.4l1.4-0.1
					l1.4,0.1l1.3,0.4l1.1,0.6l0.3,0.4L159,44l1.3-1.2l1.2-1.1l1.2-1l1.1-0.9l1.1-0.8l1-0.6l1-0.5l1-0.3l1-0.1l1,0.1l1,0.3l0.9,0.5
					l0.9,0.6l0.8,0.8l0.7,0.9l0.6,1l0.5,1.1l0.4,1.2l0.2,1.3l0.1,1.3l-0.1,1.3l-0.2,1.3l-0.4,1.2l-0.5,1.1l-0.6,1l-0.7,0.9l-0.8,0.8
					l-0.9,0.6l-0.9,0.5l-1,0.3l-1,0.1l-1-0.1l-1-0.3l-1-0.5l-1-0.6l-1.1-0.8l-1.1-0.9l-1.2-1l-1.2-1.1l-1.3-1.2l-0.1-0.1l-0.3,0.3
					l-1.1,0.6l-1.3,0.4l-1.4,0.1l-1.4-0.1l-1.3-0.4l-0.8-0.4l-0.8,0.7l-1.2,1.1l-1.2,1l-1.1,0.9l-1.1,0.8l-1,0.6l-1,0.5l-1,0.3
					l-1,0.1l-1-0.1l-1-0.3l-0.9-0.5l-0.9-0.6l-0.8-0.8l-0.7-0.9l-0.6-1l-0.5-1.1l-0.4-1.2l-0.2-1.3l-0.1-1.3l0.1-1.3l0.2-1.3
					l0.4-1.2l0.5-1.1l0.6-1l0.7-0.9l0.8-0.8l0.9-0.6l0.9-0.5l1-0.3l1-0.1l1,0.1L143.9,38z"/>
			</g>
		</g>
	</g>
	<g>
		<g>
			<path id="bxXF1oAMZ" class="st6" d="M144.3,77.7c0,2.4-1.7,4.4-3.7,4.4c-2,0-3.7-2-3.7-4.4c0-2.4,1.7-4.4,3.7-4.4
				C142.6,73.3,144.3,75.2,144.3,77.7z"/>
		</g>
	</g>
	<g>
		<g>
			<path id="c1azC6qRpt" class="st6" d="M173.2,77.7c0,2.4-1.7,4.4-3.7,4.4c-2,0-3.7-2-3.7-4.4c0-2.4,1.7-4.4,3.7-4.4
				C171.6,73.3,173.2,75.2,173.2,77.7z"/>
		</g>
	</g>
	<g>
		<g>
			<g>
				<path id="a10VdNm39L" class="st1" d="M135.1,71.5l5.4,3.4"/>
			</g>
		</g>
	</g>
	<g>
		<g>
			<g>
				<path id="b6YYI1SUE" class="st7" d="M136.9,71.8l2.8,3"/>
			</g>
		</g>
	</g>
	<g>
		<g>
			<g>
				<path id="aeTaR5DGD" class="st7" d="M135.8,73.3l2.1,2.3"/>
			</g>
		</g>
	</g>
	<g>
		<g>
			<g>
				<path id="g7KgNRhz4x" class="st7" d="M173.2,72.1l-2.1,2.3"/>
			</g>
		</g>
	</g>
	<g>
		<g>
			<g>
				<path id="c1lBudWFoi" class="st7" d="M174.5,74l-2.5,1.9"/>
			</g>
		</g>
	</g>
	<g>
		<g>
			<path id="d1SPXIIyE9" class="st6" d="M164.7,85.4l-0.3,1.4l-0.4,1.3l-0.5,1.3l-0.6,1.2l-0.7,1.1l-0.8,1l-0.9,0.8l-1,0.7l-1,0.6
				l-1.1,0.4l-1.1,0.3l-1.2,0.1l-1.2-0.1l-1.1-0.3l-1.1-0.4l-1-0.6l-1-0.7l-0.9-0.8l-0.8-1l-0.7-1.1l-0.6-1.2l-0.5-1.3l0-0.1
				l0.7,0.6l1,0.7l1.1,0.6l1.2,0.5l1.2,0.3l1.2,0.2l1.3,0.1L155,91l1.2-0.2l1.2-0.3l1.2-0.5l1.1-0.6l1.1-0.7l1-0.8l0.9-0.9l0.8-1
				l0.7-1.1l0.6-1.2l0.1-0.2l0,0.5L164.7,85.4z"/>
		</g>
	</g>
	<g>
		<g>
			<path id="d2edAJF4O" class="st4" d="M190.8,91.5c19.5,0,35.4,15.8,35.4,35.3c0,53.9-70.7,80.7-70.7,82.2l0,0
				c0-1.5-70.8-28.2-70.8-82.2c0-19.5,15.8-35.3,35.4-35.3s35.4,13.8,35.4,33.3C155.4,105.3,171.2,91.5,190.8,91.5z"/>
		</g>
		<g>
			<g>
				<path id="d2edAJF4O_1_" class="st3" d="M190.8,91.5c19.5,0,35.4,15.8,35.4,35.3c0,53.9-70.7,80.7-70.7,82.2l0,0
					c0-1.5-70.8-28.2-70.8-82.2c0-19.5,15.8-35.3,35.4-35.3s35.4,13.8,35.4,33.3C155.4,105.3,171.2,91.5,190.8,91.5z"/>
			</g>
		</g>
	</g>
	<g>
		<g>
			<path id="azFvOBMWV" class="st2" d="M108.4,92.8l0.6,0.4l0-0.3l1.7,1.2l1.5,1.1l1.3,1l1.2,0.9l1,0.9l0.8,1l0.7,1.1l0.5,1.1
				l0.3,1.2l0.1,1.1l-0.1,1l-0.3,0.9l-0.5,0.7l-0.7,0.5l-0.8,0.3l-0.9,0l-0.9-0.2l0,0l-0.2,0.7l0.1,0.2l0.5,1.1l0.3,1.1l0.1,1
				l-0.1,0.9l-0.4,0.8l-0.6,0.7l-0.8,0.4l-0.9,0.2l-1-0.1l-1-0.3l-0.2-0.1l-0.2,0.2l-0.1,0l0.2,0.3l0.3,0.9l0,0.9l-0.3,0.8l-0.5,0.7
				l-0.7,0.5l-0.9,0.3l-1,0.1l-1.1-0.1l-1.2-0.3l-1.2-0.5l-1.1-0.7l-0.7-0.6l-0.2,0l-1.2-0.2l-0.5-0.2l-0.2,0.3l-0.6,0.7l-0.8,0.4
				l-0.8,0.1l-0.9-0.1l-0.9-0.4l-0.8-0.6l-0.7-0.8l-0.6-1l-0.5-1.2l-0.3-1.2l-0.2-1.3V109l0.1-1l-0.1-0.2l-0.3-1.3l-0.2-1.4l0-1.4
				l0.1-1.4l0.3-1.4l0.4-1.3l0.5-1.3l0.6-1.2l0.7-1.1l0.8-1l0.9-0.9l1-0.8l1.1-0.7l1.2-0.5l1.2-0.4l1.3-0.2l1.3-0.1l1.3,0.1l1.2,0.3
				l1.2,0.4l0,0L108.4,92.8z"/>
		</g>
		<g>
			<g>
				<path id="azFvOBMWV_1_" class="st3" d="M108.4,92.8l0.6,0.4l0-0.3l1.7,1.2l1.5,1.1l1.3,1l1.2,0.9l1,0.9l0.8,1l0.7,1.1l0.5,1.1
					l0.3,1.2l0.1,1.1l-0.1,1l-0.3,0.9l-0.5,0.7l-0.7,0.5l-0.8,0.3l-0.9,0l-0.9-0.2l0,0l-0.2,0.7l0.1,0.2l0.5,1.1l0.3,1.1l0.1,1
					l-0.1,0.9l-0.4,0.8l-0.6,0.7l-0.8,0.4l-0.9,0.2l-1-0.1l-1-0.3l-0.2-0.1l-0.2,0.2l-0.1,0l0.2,0.3l0.3,0.9l0,0.9l-0.3,0.8
					l-0.5,0.7l-0.7,0.5l-0.9,0.3l-1,0.1l-1.1-0.1l-1.2-0.3l-1.2-0.5l-1.1-0.7l-0.7-0.6l-0.2,0l-1.2-0.2l-0.5-0.2l-0.2,0.3l-0.6,0.7
					l-0.8,0.4l-0.8,0.1l-0.9-0.1l-0.9-0.4l-0.8-0.6l-0.7-0.8l-0.6-1l-0.5-1.2l-0.3-1.2l-0.2-1.3V109l0.1-1l-0.1-0.2l-0.3-1.3
					l-0.2-1.4l0-1.4l0.1-1.4l0.3-1.4l0.4-1.3l0.5-1.3l0.6-1.2l0.7-1.1l0.8-1l0.9-0.9l1-0.8l1.1-0.7l1.2-0.5l1.2-0.4l1.3-0.2l1.3-0.1
					l1.3,0.1l1.2,0.3l1.2,0.4l0,0L108.4,92.8z"/>
			</g>
		</g>
	</g>
	<g>
		<g>
			<path id="aeCEwE6By" class="st2" d="M122.7,167.1l0.6,0.6l0.5,0.8l0.4,1l0.2,1.1l0.1,1.2l0,0.3l0.5-1l0.7-1l0.8-0.9l0.8-0.7
				l0.9-0.6l0.9-0.4l0.9-0.2l0.9,0l0.9,0.2l0.8,0.4l0.7,0.6l0.6,0.8l0.5,0.9l0.3,1l0.2,1.1l0.1,1.2l-0.1,1.2l-0.2,1.3l-0.4,1.3
				l-0.5,1.3l-0.6,1.2l-0.7,1.1l-0.8,1.1l-1,1.1l-1.1,1.2l-0.3,0.3l0.1,0.3l0.2,1.4l0.1,1.4l0,1.5l-0.1,1.5l-0.1,1.6l-0.2,1.6
				l-0.3,1.6l-0.4,1.5l-0.5,1.4l-0.6,1.4l-0.6,1.3l-0.7,1.3l-0.8,1.2l-0.8,1.1l-0.9,1l-0.9,0.9l-0.9,0.9l-1,0.8l-1,0.7l-1.1,0.6
				l-1.1,0.5l-1.1,0.3l-1.1,0.2l-1.1,0.1h-1.1l-1.1-0.1l-1.1-0.3l-1.1-0.4l-1-0.5l-1-0.6l-0.9-0.7l-0.8-0.8l-0.8-0.9l-0.7-1
				l-0.7-1.1l-0.6-1.1l-0.5-1.2l-0.4-1.3l-0.4-1.3l-0.3-1.4l-0.2-1.4l-0.1-1.5l0-1.5l0.1-1.5l0.1-1.6l0.2-1.6l0.3-1.6l0.4-1.5
				l0.5-1.4l0.6-1.4l0.3-0.6l0,0l-0.8-1.2l-0.6-1.3l-0.2-1.4l0.2-1.3l0.5-1l0.8-0.6l0.9-0.1l0.9,0.5l0.8,0.9l0,0l0-0.1l0-1.3
				l0.1-1.3l0.3-1.2l0.4-1l0.5-0.9l0.6-0.7l0.7-0.4l0.7-0.2l0.7,0.1l0.6,0.4l0.6,0.6l0.3,0.5l0.4-1l0.5-0.9l0.6-0.7l0.7-0.4l0.7-0.2
				l0.7,0.1l0.6,0.4l0.6,0.6l0.5,0.8l0,0l0.3-1l0.5-1l0.6-0.9l0.7-0.7l0.7-0.5l0.8-0.3l0.8-0.1l0.8,0.2L122.7,167.1z"/>
		</g>
		<g>
			<g>
				<path id="aeCEwE6By_1_" class="st3" d="M122.7,167.1l0.6,0.6l0.5,0.8l0.4,1l0.2,1.1l0.1,1.2l0,0.3l0.5-1l0.7-1l0.8-0.9l0.8-0.7
					l0.9-0.6l0.9-0.4l0.9-0.2l0.9,0l0.9,0.2l0.8,0.4l0.7,0.6l0.6,0.8l0.5,0.9l0.3,1l0.2,1.1l0.1,1.2l-0.1,1.2l-0.2,1.3l-0.4,1.3
					l-0.5,1.3l-0.6,1.2l-0.7,1.1l-0.8,1.1l-1,1.1l-1.1,1.2l-0.3,0.3l0.1,0.3l0.2,1.4l0.1,1.4l0,1.5l-0.1,1.5l-0.1,1.6l-0.2,1.6
					l-0.3,1.6l-0.4,1.5l-0.5,1.4l-0.6,1.4l-0.6,1.3l-0.7,1.3l-0.8,1.2l-0.8,1.1l-0.9,1l-0.9,0.9l-0.9,0.9l-1,0.8l-1,0.7l-1.1,0.6
					l-1.1,0.5l-1.1,0.3l-1.1,0.2l-1.1,0.1h-1.1l-1.1-0.1l-1.1-0.3l-1.1-0.4l-1-0.5l-1-0.6l-0.9-0.7l-0.8-0.8l-0.8-0.9l-0.7-1
					l-0.7-1.1l-0.6-1.1l-0.5-1.2l-0.4-1.3l-0.4-1.3l-0.3-1.4l-0.2-1.4l-0.1-1.5l0-1.5l0.1-1.5l0.1-1.6l0.2-1.6l0.3-1.6l0.4-1.5
					l0.5-1.4l0.6-1.4l0.3-0.6l0,0l-0.8-1.2l-0.6-1.3l-0.2-1.4l0.2-1.3l0.5-1l0.8-0.6l0.9-0.1l0.9,0.5l0.8,0.9l0,0l0-0.1l0-1.3
					l0.1-1.3l0.3-1.2l0.4-1l0.5-0.9l0.6-0.7l0.7-0.4l0.7-0.2l0.7,0.1l0.6,0.4l0.6,0.6l0.3,0.5l0.4-1l0.5-0.9l0.6-0.7l0.7-0.4
					l0.7-0.2l0.7,0.1l0.6,0.4l0.6,0.6l0.5,0.8l0,0l0.3-1l0.5-1l0.6-0.9l0.7-0.7l0.7-0.5l0.8-0.3l0.8-0.1l0.8,0.2L122.7,167.1z"/>
			</g>
		</g>
	</g>
	<g>
		<g>
			<path id="asOLYP0Rl" class="st2" d="M214.2,92.7l1.1,0.7l1,0.8l0.9,0.9l0.8,1l0.8,1.1l0.6,1.2l0.5,1.3l0.4,1.3l0.2,1.4l0.1,1.4
				l0,1.4l-0.2,1.4l-0.3,1.3l-0.1,0.2l0.1,1l0,1.4l-0.1,1.3l-0.3,1.2l-0.5,1.2l-0.6,1l-0.8,0.8l-0.8,0.6l-0.9,0.4l-0.9,0.1l-0.8-0.1
				l-0.8-0.4l-0.6-0.7l-0.2-0.3l-0.5,0.2l-1.3,0.2l-0.2,0l-0.7,0.6l-1.1,0.7l-1.2,0.5l-1.2,0.3l-1.1,0.1l-1-0.1l-0.9-0.3l-0.7-0.5
				l-0.5-0.7l-0.2-0.8l0-0.9l0.3-0.9l0.2-0.3l-0.1,0l-0.2-0.2l-0.2,0.1l-1,0.3l-0.9,0.1l-0.9-0.2l-0.8-0.4l-0.6-0.7l-0.3-0.8
				l-0.1-0.9l0.1-1l0.3-1.1l0.5-1.1l0.1-0.2l-0.2-0.7v0l-0.9,0.2l-0.9,0l-0.8-0.3l-0.7-0.5l-0.5-0.7l-0.3-0.9l-0.1-1l0.1-1.1
				l0.3-1.2l0.5-1.1l0.7-1.1l0.9-1l1-0.9l1.2-0.9l1.3-1l1.5-1.1l1.6-1.2l0,0.3l0.6-0.4l1.1-0.6l1.2-0.4l1.3-0.3l1.3-0.1l1.3,0.1
				l1.3,0.2l1.2,0.4l0,0L214.2,92.7z"/>
		</g>
		<g>
			<g>
				<path id="asOLYP0Rl_1_" class="st3" d="M214.2,92.7l1.1,0.7l1,0.8l0.9,0.9l0.8,1l0.8,1.1l0.6,1.2l0.5,1.3l0.4,1.3l0.2,1.4
					l0.1,1.4l0,1.4l-0.2,1.4l-0.3,1.3l-0.1,0.2l0.1,1l0,1.4l-0.1,1.3l-0.3,1.2l-0.5,1.2l-0.6,1l-0.8,0.8l-0.8,0.6l-0.9,0.4l-0.9,0.1
					l-0.8-0.1l-0.8-0.4l-0.6-0.7l-0.2-0.3l-0.5,0.2l-1.3,0.2l-0.2,0l-0.7,0.6l-1.1,0.7l-1.2,0.5l-1.2,0.3l-1.1,0.1l-1-0.1l-0.9-0.3
					l-0.7-0.5l-0.5-0.7l-0.2-0.8l0-0.9l0.3-0.9l0.2-0.3l-0.1,0l-0.2-0.2l-0.2,0.1l-1,0.3l-0.9,0.1l-0.9-0.2l-0.8-0.4l-0.6-0.7
					l-0.3-0.8l-0.1-0.9l0.1-1l0.3-1.1l0.5-1.1l0.1-0.2l-0.2-0.7v0l-0.9,0.2l-0.9,0l-0.8-0.3l-0.7-0.5l-0.5-0.7l-0.3-0.9l-0.1-1
					l0.1-1.1l0.3-1.2l0.5-1.1l0.7-1.1l0.9-1l1-0.9l1.2-0.9l1.3-1l1.5-1.1l1.6-1.2l0,0.3l0.6-0.4l1.1-0.6l1.2-0.4l1.3-0.3l1.3-0.1
					l1.3,0.1l1.3,0.2l1.2,0.4l0,0L214.2,92.7z"/>
			</g>
		</g>
	</g>
	<g>
		<g>
			<path id="e2OszkypfS" class="st2" d="M189.7,164.8l0.7,0.5l0.7,0.7l0.6,0.9l0.5,1l0.3,1l0,0l0.4-0.8l0.6-0.6l0.6-0.4l0.7-0.1
				l0.7,0.2l0.7,0.4l0.6,0.7l0.5,0.9l0.4,1l0.3-0.5l0.6-0.6l0.6-0.4l0.7-0.1l0.7,0.2l0.7,0.4l0.6,0.7l0.5,0.9l0.4,1l0.3,1.2l0.1,1.3
				l-0.1,1.3l0,0.1l0,0l0.8-0.9l0.9-0.5l0.9,0.1l0.8,0.6l0.5,1l0.2,1.3l-0.2,1.4l-0.6,1.3l-0.8,1.2l0,0l0.3,0.6l0.6,1.4l0.5,1.5
				l0.4,1.5l0.3,1.5l0.2,1.6l0.1,1.6l0.1,1.5l0,1.5l-0.1,1.5l-0.2,1.4l-0.3,1.4l-0.4,1.3l-0.4,1.3l-0.5,1.2l-0.6,1.1l-0.7,1.1
				l-0.7,1l-0.8,0.9l-0.9,0.8l-0.9,0.7l-1,0.6l-1,0.5l-1.1,0.4l-1.1,0.3l-1.1,0.1H195l-1.1-0.1l-1.1-0.2l-1.1-0.4l-1.1-0.5l-1.1-0.6
				l-1-0.7l-1-0.8l-0.9-0.9l-0.9-0.9l-0.9-1l-0.8-1.1l-0.8-1.2l-0.7-1.3l-0.6-1.3l-0.6-1.4l-0.5-1.5l-0.4-1.5l-0.3-1.5l-0.2-1.6
				l-0.1-1.5l0-1.5l0-1.5l0.1-1.4l0.2-1.4l0.1-0.3l-0.3-0.3l-1.1-1.2l-1-1.1l-0.9-1.1l-0.7-1.1l-0.6-1.2l-0.5-1.3l-0.4-1.3l-0.2-1.3
				l-0.1-1.2l0.1-1.2l0.2-1.1l0.3-1l0.5-0.9l0.6-0.8l0.7-0.6l0.8-0.4l0.9-0.2l0.9,0l0.9,0.2l0.9,0.4l0.9,0.5l0.8,0.7l0.8,0.9l0.7,1
				l0.5,1l0-0.3l0.1-1.2l0.2-1.1l0.4-1l0.5-0.8l0.6-0.6l0.7-0.4l0.8-0.2l0.8,0.1L189.7,164.8z"/>
		</g>
		<g>
			<g>
				<path id="e2OszkypfS_1_" class="st3" d="M189.7,164.8l0.7,0.5l0.7,0.7l0.6,0.9l0.5,1l0.3,1l0,0l0.4-0.8l0.6-0.6l0.6-0.4l0.7-0.1
					l0.7,0.2l0.7,0.4l0.6,0.7l0.5,0.9l0.4,1l0.3-0.5l0.6-0.6l0.6-0.4l0.7-0.1l0.7,0.2l0.7,0.4l0.6,0.7l0.5,0.9l0.4,1l0.3,1.2
					l0.1,1.3l-0.1,1.3l0,0.1l0,0l0.8-0.9l0.9-0.5l0.9,0.1l0.8,0.6l0.5,1l0.2,1.3l-0.2,1.4l-0.6,1.3l-0.8,1.2l0,0l0.3,0.6l0.6,1.4
					l0.5,1.5l0.4,1.5l0.3,1.5l0.2,1.6l0.1,1.6l0.1,1.5l0,1.5l-0.1,1.5l-0.2,1.4l-0.3,1.4l-0.4,1.3l-0.4,1.3l-0.5,1.2l-0.6,1.1
					l-0.7,1.1l-0.7,1l-0.8,0.9l-0.9,0.8l-0.9,0.7l-1,0.6l-1,0.5l-1.1,0.4l-1.1,0.3l-1.1,0.1H195l-1.1-0.1l-1.1-0.2l-1.1-0.4
					l-1.1-0.5l-1.1-0.6l-1-0.7l-1-0.8l-0.9-0.9l-0.9-0.9l-0.9-1l-0.8-1.1l-0.8-1.2l-0.7-1.3l-0.6-1.3l-0.6-1.4l-0.5-1.5l-0.4-1.5
					l-0.3-1.5l-0.2-1.6l-0.1-1.5l0-1.5l0-1.5l0.1-1.4l0.2-1.4l0.1-0.3l-0.3-0.3l-1.1-1.2l-1-1.1l-0.9-1.1l-0.7-1.1l-0.6-1.2
					l-0.5-1.3l-0.4-1.3l-0.2-1.3l-0.1-1.2l0.1-1.2l0.2-1.1l0.3-1l0.5-0.9l0.6-0.8l0.7-0.6l0.8-0.4l0.9-0.2l0.9,0l0.9,0.2l0.9,0.4
					l0.9,0.5l0.8,0.7l0.8,0.9l0.7,1l0.5,1l0-0.3l0.1-1.2l0.2-1.1l0.4-1l0.5-0.8l0.6-0.6l0.7-0.4l0.8-0.2l0.8,0.1L189.7,164.8z"/>
			</g>
		</g>
	</g>
	<g>
		<g>
			<g>
				<path id="awfsUHSZY" class="st7" d="M160.3,30.1l-3.2,1.6l-2.7,2.6l-1.1,3.3l3.1,2.3l3.3-1.6l0.8-3.4l-3.7-1.5l-3.8,0.4
					l-2.5,2.6l-0.1,3.5l1.2,3.3"/>
			</g>
		</g>
	</g>
</g>
</svg>
