<?xml version="1.0" encoding="utf-8"?>
<!-- Generator: Adobe Illustrator 22.0.0, SVG Export Plug-In . SVG Version: 6.00 Build 0)  -->
<svg version="1.1" id="Layer_1" xmlns="http://www.w3.org/2000/svg" xmlns:xlink="http://www.w3.org/1999/xlink" x="0px" y="0px"
	 viewBox="0 0 288.9 370.3" style="enable-background:new 0 0 288.9 370.3;" xml:space="preserve">
<style type="text/css">
	.st0{opacity:0.72;fill:#844C19;enable-background:new    ;}
	.st1{opacity:0.75;fill:#FEF2F9;enable-background:new    ;}
	.st2{fill:#C01E61;}
	.st3{fill:#181485;}
	.st4{fill:#BDB6C1;}
	.st5{opacity:0.26;fill:#DC78A3;enable-background:new    ;}
	.st6{opacity:0.47;fill:#DA5493;enable-background:new    ;}
	.st7{opacity:0.75;fill:#FFFFFF;enable-background:new    ;}
	.st8{opacity:0.72;fill:#FFFFFF;enable-background:new    ;}
	.st9{opacity:0.26;fill:#DEAFBB;enable-background:new    ;}
	.st10{opacity:0.34;fill:#844C19;enable-background:new    ;}
</style>
<path class="st0" d="M254.4,321.1c-5.5,0.4-10.9,0.8-16.4,1.2c-12.5-1.1-25.1-0.5-37.6-0.2c-0.3,0-0.5,0-0.8,0
	c-11-0.7-22.4,0-33.5,0.4c-0.5-0.4-1.1-0.7-1.9-0.8c-17.7-2.3-35.6-0.5-53.3,0.6c-14.7,0.9-29.3,1.8-44,2.7c-0.8-0.4-1.8-0.6-3-0.4
	c-2,0.3-4.1,0.6-6.1,0.9c-7,0.7-14,0-20.7-2c-4.6-1.4-8.5,3.7-3.8,5.1c7.8,2.4,15.8,3.3,23.9,2.8c0.2,0,0.4,0,0.6,0
	c17.1-1.1,34.3-2.1,51.4-3.2c14.9-0.9,30.3-2.6,45.4-1.7c0.4,1.1,1.7,2,3.6,1.9c13.2-0.2,26.4-0.4,39.6-0.7c3,0.1,5.9,0.3,8.8,0.6
	c8.7,0.9,17.6,0.6,26.5,0l6.4,1c2.2,0.3,3.8-0.6,4.5-1.8c3.6-0.3,7.1-0.6,10.6-0.8C259.6,326.6,259.5,320.8,254.4,321.1z"/>
<path class="st1" d="M96.4,320.5c-0.1-0.5-0.4-0.9-0.7-1.3c-1.1-1.3-2.2-2.3-3.5-3c0-0.1,0-0.2,0-0.3c-1.1-4.7-2.7-9.1-4.9-13.3
	c0-0.2,0-0.4,0-0.6c-0.1-1.3-0.2-2.6-0.3-3.8c0-0.3-0.1-0.6-0.2-0.9c1.6-6.9,4.7-13.1,9.3-18.5c1-1.1,1-2.7,0.4-3.9
	c0.7-1.2,0.1-3.1-1.7-3.1c-0.8,0-1.3,0.4-1.6,0.9c-0.5,0.1-1,0.3-1.4,0.7c-2.3,1.9-5.7,3.9-8.5,6.2c0.3-0.5,0.5-1.1,0.4-1.8
	c-0.6-4.1-0.2-13.2-6.2-13.6c-0.8-0.1-1.5,0.1-2.1,0.3l-0.1-0.1c-4.8-3.3-10.4-4.8-16.3-4.3c-0.8,0.1-1.5,0.4-2,0.8
	c-0.7,0.2-1.4,0.4-2.1,0.6c-3.5,1.4-8.9,3.8-9.5,8.1c-0.2,0.4-0.4,0.9-0.4,1.4c-0.2,2.4,0.3,4.5,1.2,6.4c-0.1,2.3,0.4,4.6,1.9,6.5
	c1.3,1.7,3.1,2.7,5,3c-0.4,0.2-0.8,0.4-1.1,0.9c-0.2,0.2-0.3,0.5-0.5,0.7c-0.1,0.1-0.1,0.3-0.2,0.4c-0.2,0.3-0.4,0.6-0.5,1
	c-0.1,0.1-0.1,0.3-0.2,0.5c-1.2,1.4-2.3,2.9-3.4,4.5c-0.5,0.7-0.6,1.6-0.4,2.4c-0.3,0.2-0.5,0.4-0.8,0.5c-0.9,0.6-1.3,1.8-0.7,2.7
	c0.6,0.9,1.8,1.3,2.7,0.7c0.4-0.2,0.8-0.5,1.1-0.7c0.2-0.1,0.3-0.3,0.4-0.4c0.5,0.1,1,0,1.5-0.2c2.8-1.2,5.4-2.7,7.6-4.6
	c0,4-0.3,8-0.9,12c-0.1,0.8,0,1.6,0.4,2.2c0,0-0.1,0-0.1-0.1c-0.9-0.8-2.2-1.3-3.4-0.8c-0.6,0.2-1.2,0.4-1.7,0.6
	c-2-1-4.6-0.5-6.4,1.3c-1.4,1.4-1.2,3.1-0.3,4.3c-0.4,0.5-0.6,1.2-0.7,1.9c0,0.7-0.1,1.3-0.1,2c0,0,0,0,0,0.1
	c-1.8,1.5-2.2,4-0.7,5.9c1.9,2.4,5.9,1.9,8.6,2.1c2.8,0.2,5.6,0.5,8-1.1c1.3-0.2,2.6-1,2.8-2.5c0.1-0.5,0.1-1,0.2-1.5
	c0.3,0.9,1.1,1.7,2.2,2.1c3.7,1.3,7.5,1.7,11.4,1.1c1.8-0.3,3.7-1.2,5.5-1.9c0.1,1.3,1,2.6,2.5,3c1.6,0.4,2.6,0.4,4.2,0
	c0.7-0.1,1.3-0.5,1.7-1c0,0,0.1,0,0.1,0.1c1.3,0.4,2.4,0,3.1-0.7c0.2,0.1,0.5,0.1,0.7,0.1C98.7,324.4,98.7,320.7,96.4,320.5z
	 M60,311.1c0.3,0.2,0.6,0.3,0.9,0.4c0,0.3,0.1,0.6,0.1,0.9C60.7,312,60.4,311.5,60,311.1z"/>
<path class="st2" d="M121.6,143.9c-0.1-4.3-1.4-8.3-5.6-9.8c-4.5-4-10.5-4.8-16.3-4.8c-1.3,0-2.4,0.5-3.2,1.3
	c-1.7,0.2-3.4,0.4-4.9,1c-0.3,0.5-0.7,0.9-1.2,1.2c-0.1,0.1-0.3,0.2-0.4,0.3s-0.2,0.2-0.3,0.3c-0.5,0.5-1.1,0.8-1.7,0.9
	c-0.3,0.5-0.6,1-0.9,1.5c-1.6-1.2-3.5-2-5.2-3c-4.4-2.3-8.8-5.5-14-5.1c-1.7,0.1-2.9,0.8-3.7,1.8c-0.8,0.4-1.5,1.1-2.1,1.9
	c-1.4,0.3-2.8,0.7-4,2c-1.6,1.7-2.4,4.6-3.2,6.8c-1,2.8,0,5.2,0.5,8s1.3,5.1,3.1,7.3c3.9,4.9,8.6,9.8,14.6,11.9
	c6,2,11.8,5.7,18.2,6.1c1.5,0.1,2.6-0.4,3.4-1.2c3.5,0,5.9-1.9,8.2-4.6c1.8-2,3.6-3.3,4.7-5.4c1-0.3,2.2-0.5,3-1.1
	c1.7-1,3.3-2.4,4.6-4c0.9-1,1.8-2.1,2.5-3.2c1.6-0.3,3-1.4,3.4-3.6c0.1-0.9,0.3-1.8,0.3-2.7c0.1-0.3,0.2-0.6,0.3-0.9
	C122.1,145.8,122,144.8,121.6,143.9z"/>
<path class="st3" d="M170,28.6c-2.4-2.9-5.5-6.3-9.3-7.2c-2.9-0.7-6.2-0.6-9.4-0.4c-1.1-0.8-2.5-1.2-4.1-0.7
	c-4-0.1-8.2,0.1-11.8,2.2c-3.4,2-6.2,5.3-9.1,8c-0.9,0.9-1.3,2.1-1.4,3.3c-1.5,1.8-2.3,4.1-2.3,6.7c-0.4,0.8-0.7,1.5-0.9,2.3
	c-0.2,0.4-0.5,0.8-0.7,1.2c-0.1,0.1-0.2,0.3-0.2,0.4c-0.4-0.8-1-1.5-1.9-2c-5.7-3.5-12.3-6.1-18.6-5.7c-0.4-0.1-0.9-0.2-1.3-0.2
	h-1.6l0,0c-0.4,0-0.9,0.1-1.3,0.2c-0.5,0.1-1,0.3-1.4,0.6c-0.5,0-1,0.1-1.5,0.3c-2,0.7-3.4,1.6-4.3,3c-0.3,0.1-0.7,0.3-1,0.5
	c-1.8,1.1-2.9,2.4-3.4,4.1c-1.4,0.8-2.4,2.3-2.7,4c-0.1,0.1-0.1,0.1-0.2,0.2c-0.7,0.8-1.4,1.8-2,2.8c-1.3,2.2-2.1,4.6-2.6,7.2
	c-0.3,2,0.3,3.6,1.5,4.7c0,0.6,0.2,1.3,0.5,1.9c0.9,1.8,2.1,3.4,3.5,4.7c0.3,3.5,2.1,6.5,6.2,8.6c0.1,0,0.1,0,0.2,0.1
	c0.2,0.5,0.6,0.9,1.1,1.3s1.1,0.8,1.6,1.2c1,1.4,2.2,2.9,3.8,3.7h0.1c0.7,0.3,1.5,0.6,2.3,0.5c0.2,0,0.4,0,0.6-0.1
	c1.1,0.5,2.3,0.9,3.7,1.2c0.9,0.4,1.7,0.8,2.6,1.1c4.4,1.8,11.1,3.8,16.1,2.4c6.6,0.2,12.8,2.4,19,4.7c1.3,0.5,2.5,0.4,3.4-0.1
	c0.9-0.2,1.7-0.6,2.5-1.3c4-3.6,6.1-8.8,9.1-13.2c3.2-4.6,8.4-7.6,11.9-12.1c0.7-0.9,1.2-1.6,1.7-2.6c0.1-0.1,0.4-1.1,0.5-1.7
	c0.5-0.4,1.4-1.4,1.5-1.5c0.8-0.8,1.5-1.7,2.1-2.6c1.6-2.3,2.4-4.9,2.7-7.5c0.2-0.4,0.4-0.8,0.5-1.2C177,43.4,175.4,35,170,28.6z"/>
<path class="st4" d="M241.9,288.7c-0.1-1.9-1.6-3.5-3.6-3.4c-0.2,0-0.3,0-0.5,0c-0.9-2-2.2-3.9-4-5.3c-1.9-1.4-4.1-2.2-6.3-2.1
	c-0.1-0.4-0.2-0.9-0.4-1.3c0.9-2.5,0.5-5.4-2.2-7.7c-2.7-2.4-5.4-4.8-8-7.3c3.4-0.8,5.7-3.8,6.4-7.3c2.7-3.1,5.4-6.4,6.5-10
	c1.4-4.6-0.1-9.4-3.6-12.6c-2.2-6.8-5.4-12.5-11.8-16.3c-6.2-3.7-13.3-6.8-20.6-6.5c-7-1.3-14-1.3-20.5,1.7
	c-1.8-1.1-3.6-2.2-5.4-3.4c-0.3-0.2-0.7-0.4-1-0.5c-0.4-1-0.9-2-1.4-3c-1.3-2.5-3.3-3.6-5.3-3.9c-0.5-0.9-0.9-1.8-1.4-2.7
	c0-0.1,0-0.1,0-0.2c-1.6-5.1-4.7-8.4-8.7-10.8c-0.7-0.6-1.3-1.2-2-1.8c-0.8-0.8-1.8-1.5-2.8-2.1c-1.7-1-3.3-0.7-4.4,0.3
	c-1.7-0.1-3.1,1.1-3.6,2.7c-1.8,2.6,0.5,7.2,4.4,6.2c0.2-0.1,0.4-0.1,0.6-0.2c0.5,0.2,1,0.4,1.4,0.6c0,0.4,0.1,0.7,0.3,1.1
	c0.4,1,0.8,2,1.2,2.9c0.5,4.5-0.9,9.8-1.3,13.6c-0.2,2.3-0.2,4.6,0.2,6.8c-0.4,0.8-0.6,1.8-0.3,3l4.7,16.3c-0.3,0.9-0.5,1.7-0.6,2.6
	l-1.2,3.5c-1.2,3.4,0.3,6.3,2.7,8.1c2,4.9,5.3,9.4,8.9,13.5c0.7,0.8,1.6,1.4,2.6,1.7c-4.3,5.7-3.8,15.4-0.2,21.4
	c0.4,0.7,0.9,1.3,1.3,1.9c0.3,7.5,0.5,15,0.8,22.5c0.1,1.6,0.5,2.9,1.2,4c0.5,3.8,4.4,7.3,8.3,7.7c1.5,0.1,2.9,0.3,4.4,0.3
	c4.3,2,9.1,1.7,13.3-0.2c3.6-0.3,7.2-0.8,10.8-1.4c0.4-0.1,0.8-0.2,1.2-0.2c1.1,0.5,2.3,0.8,3.6,1c10.5,1.1,26.5,5.7,31.4-6.6
	c1.7-1.8,2.4-4.9,1.7-7.2c0.6-4.4,0.8-9.1,0.8-13.2c0-0.9,0-1.8-0.1-2.7C240.8,291.6,242,290.3,241.9,288.7z"/>
<path class="st5" d="M179.6,282.3c-0.3,0-0.5-0.1-0.7-0.1c0.3-4.9,1.8-9.2,4.4-13.5c4.3-7-4.9-16.5-11.8-11.4
	c-0.8,0.6-1.6,1.3-2.4,1.9c0-0.1,0.1-0.3,0.1-0.4c0.9-4.4,0.9-9-0.7-13.3c-1.6-4.6-4.4-7.5-7.4-11.2c-2.4-2.8-7.3-3-10.3-1.1
	c-3.4,2.1-4.4,5.9-3.7,9.7c0.4,2.1,0.8,4.2,1.2,6.3c0.4,2.1,1.9,3.8,3.7,4.8c-0.2,1.2-0.1,2.5,0.3,3.6l0.6,1.5
	c1.4,3.5,4.3,6.2,8.3,6.1c1.1,0,2.2-0.3,3.2-0.7c-3.5,5-5.3,10.9-4.3,17.5c1.6,10.3,9.9,16.5,19.9,17.4c4.6,0.4,8.4-4.4,8.4-8.6
	C188.2,285.6,184.2,282.7,179.6,282.3z"/>
<path class="st6" d="M80,274.3c-7-3.8-12.8,7.1-5.8,11C81.2,289.1,87,278.2,80,274.3z"/>
<g>
	<path d="M59.6,290.9c-0.3-0.2-0.8-0.4-1.1-0.3c-0.5,0.2-0.1,1.3-0.1,2.3c-0.2,3.1-5,5.4-5.6,5.6c-1.4,0.7-2.1,0.6-3.6,1.6
		c-1.1,0.7-1.8,1.4-2.3,1.2c-0.4-0.2-0.3-1-0.2-1.7c0.3-2.3,0.7-4.8,3.1-8.1c0.3-0.5,0.9-1.1,1.6-1.9c-0.1-0.5-0.2-1.1-0.4-1.1
		c-0.1,0-0.2,0.2-0.2,0.2c-0.4,0.8-1.6,1.6-2.9,3.9c-0.9,1.6-0.8,2.1-2.2,6c-1.3,3.7-1.9,5-1.4,5.3c0.3,0.2,0.9-0.6,3.7-2
		c0,0,0.1-0.1,0.2-0.1c4-2,6.2-1.5,7.6-3.3c0.3-0.4,0.6-0.9,1.3-1c0.7-0.1,1.5,0.2,2.8,1.5c0.8,0.7,1.5,1.3,2.3,2.3
		c2.2,2.7,3,4.5,3,4.5c0.2,0.4,0.5,1,1,1.1c0.7,0.1,1.4-0.7,1.6-1c1-1.2,2.9-4.8,1.6-10.5c-1.1-5.2-4.2-9.1-4.5-9
		c-0.2,0.1,1,3.1,1.5,4.4c0.8,2,1,2.1,1.3,2.9c1.3,3.7,0.2,7.8-0.4,9.4c-0.1,0.2,0,0.7-0.3,0.8c-0.4,0.2-1.2-0.4-3-2.4
		c-2.9-3.1-4.3-4.7-4.5-6C59.5,293.3,60.8,291.7,59.6,290.9z"/>
	<path d="M62.3,289.8c0.2,1.1,0.2,1,0.3,1.3c0.1,0.4,0.2,0.8,0.4,1.4c0-0.7,0.1-1.2,0.2-1.6c0.2-1.1,0.6-1.6,0.3-2.3
		c-0.1-0.1-0.2-0.5-0.5-0.5s-0.5,0.2-0.6,0.4C62.1,288.7,62.2,289,62.3,289.8z"/>
	<path d="M121.9,141.2c-0.2-1.2-2-7.4-9.3-10.9c-1-0.5-6.4-3-13.3-1.8c-2.2,0.4-5.5,1-7.3,2.8c-0.1,0.1-0.2,0.2-0.3,0.3
		c-0.3,0.5-0.7,0.9-1.2,1.2c-0.1,0.1-0.3,0.2-0.4,0.3s-0.2,0.2-0.3,0.3c-0.4,0.4-0.8,0.7-1.3,0.8c-0.2,0.2-0.6,0.6-1,0.6
		c-0.8,0.1-1.4-0.5-1.8-0.8c-0.3-0.2-0.6-0.3-0.9-0.6c-1.1-0.7-3.2-1.9-6.4-3.6c-1.2-0.7-5.2-2.9-9.7-2.5c-4.3,0.4-7,3.1-9,5
		c-4.1,3.9-5.1,8.2-5.5,10c-0.3,1.4-0.9,4-0.2,7.3c0.6,2.9,1.9,4.9,3.2,6.8c2.7,4,5.9,6.6,8.5,8.7c0,0,2.7,2.7,5.7,3.9
		c1,0.4,1.7,0.7,2.8,0.7c0.8,0,1.3-0.2,2.1,0c0.8,0.1,1.4,0.5,1.6,0.6c2.6,1.4,11.6,2.4,11.5,3.5c0,0.4-0.9,0.3-1.5,1.2
		c-0.5,0.8-0.2,1.7-0.2,1.8c0.1,0.2,0.5,1.3,1.6,1.7s2.4,0,3.1-0.5c0.5-0.3,0.8-0.6,1.1-0.5c0.5,0.1,0.7,0.6,0.8,0.9
		c1.7,4.1,1.5,7.3,1.5,7.3s-0.2,4-0.2,7.6c0,3.2,0.3,4.1,0.7,8c0.4,5,0,4.2,0.2,15.3c0.1,6.3,0.3,7.2-0.3,9.3
		c-0.5,1.5-1.1,2.9-1.1,5.2c0,1.7,0.3,2.5,0.3,4.5s-0.3,3.4-0.5,4.4c-1.1,5.7,0.2,6.9-0.8,13.9c-0.5,3.4-1,4.1-0.9,6.7
		c0,0.8,0.1,0.3,0.6,5.7c0.4,3.6,0.5,4.9,0.2,5.6c0,0.1-0.2,0.5-0.1,0.9c0,0.1,0.1,0.2,0.1,0.3c-0.2,0-0.4,0-0.4,0
		c-0.4,0.1-0.5,0.3-0.9,0.5c-0.5,0.4-0.9,0.4-1.5,0.7c-0.6,0.2-2.4,1-3.9,2.1c-0.2,0.2-0.8,0.6-1.5,0.7c-0.5,0.1-0.7-0.1-0.8-0.1
		c-0.2-0.1-0.3-0.4-0.4-0.5c-0.1-0.2-0.1-0.4-0.1-0.4c-0.1-1-2-8-2.1-10.1c0-0.2-0.1-0.5-0.2-1c-0.1-0.6-0.2-0.8-0.4-0.8
		c-0.3-0.1-0.7,0.1-0.9,0.3c-0.3,0.3-0.3,0.6-0.2,0.8c0,0.5,0.4,0.9,0.5,1c0.4,0.4,0.4,0.7,1,4.2c0.2,1.3,0.3,1.9,0.4,2.3
		c0.4,2,0.6,1.9,0.7,2.7c0.4,2.9-1.8,5.3-2,5.5c-0.3,0.3-0.3,0.3-1.5,1.6c-1,1-1.6,1.7-1.6,2.6c0,0.2,0,0.5,0.2,0.7
		c0.3,0.2,0.9-0.2,1.1-0.4c3.9-2.5,8.6-5.5,11.2-6.8c0.4-0.2,1.4-0.7,2.4-1.7c0.8-0.8,1.3-1.9,1.4-2.1s0.4-0.5,0.4-0.9v-0.1
		c0.3,0,0.5-0.2,0.8-0.1c0,0,0.4,0.1,0.7,0.5c0.8,1.1-4,8.7-4.1,9c-1.6,2.5-3.3,5.7-4.7,9.4c-1.2,3.4-1.3,5.1-1.1,6.6
		c0.2,1.8,0.7,1.9,2.1,5.3c2.2,5.4,1.5,6.4,3,9.9c0.6,1.4,0.6,3,1.1,4.4c0.1,0.2,0.2,0.5,0,0.9c-0.4,0.8-2,1-3,1.1s0.4,0-9,3
		c-2,0.6-3,1-3.1,1c0,0-5.4,1.1-10.7-1.2c-0.9-0.4-1.5-0.8-1.8-1.4c-0.6-1.1,0-1.9,0.2-3.3c0.1-1.6-0.5-2.7-1.7-4.8
		c-0.5-1-0.5-0.7-3.4-4.8c-0.7-1-1.1-1.6-1.4-2.5c-0.3-0.8-0.2-1.7-0.2-3.3c0.1-2,0.1-3,0.2-3.1c0,0,0.2-0.6,0-1.3
		c0-0.1-0.1-0.3-0.2-0.3s-0.1,0.2-0.2,0.4c-0.1,0.4-0.1,0.3-0.3,0.7c0,0.1-0.1,0.4-0.2,0.9s-0.2,0.9-0.2,1.1
		c-0.1,0.7-0.3,1.5-0.2,2.9c0,0.5,0.1,0.9-0.2,1.3c-0.4,0.5-1,0.7-2,0.8c-1.6,0.3-2.7,0.3-3.8,0.4c-1.9,0.2-2.8,0.3-3.6,0.6
		c-0.6,0.3-2,1-2.6,2.4c-0.1,0.3-0.2,0.6-0.1,2.7c0.1,2.6,0.2,2.7,0.1,3.6c-0.1,1.2-0.5,2.1-0.9,3.1c-0.7,1.8-1.1,2.7-2.1,3.1
		c-0.7,0.3-1.7,0.3-2,0.3c-1,0-1.5-0.2-2.2,0.1c-0.2,0.1-0.7,0.3-0.7,0.7c0,0.3,0.3,0.6,0.7,0.7c0.3,0.1,0.5-0.1,1.1-0.1
		c0.4,0,0.5,0.1,0.9,0.1c0.5,0,0.7-0.1,1.9-0.2c1.3-0.2,1.5-0.2,1.6-0.1c0.6,0.2,0.7,0.7,1,1c1.1,1.7,4,2.2,4.8,2.3
		c0.4,0.1,1.4,0,3.2-0.1c1.3-0.1,2.8-0.2,5.6-0.4c0.5,0,1.7-0.2,3.2-0.4c1.5-0.3,2.4-0.6,2.6-1.1c0.1-0.2,0.1-0.4,0.3-0.7
		c0.4-0.4,0.9-0.4,1.1-0.4c0.8-0.1,1.4,0.2,2.2,0.6c0,0,0.9,0.3,2.7,0.8c0.7,0.2,3.5,1.1,6.7,0.6c1.3-0.2,2.1-0.5,4.1-0.7
		c0.9-0.1,1.5-0.1,2.2,0.1c1.1,0.3,1.2,0.8,2.1,1c0.9,0.3,1.6,0,3.3-0.5c2.4-0.6,1.9-0.3,4.3-0.9c2.9-0.8,4.3-1.1,5.1-1.7
		c0.7-0.4,1.5-1.1,2.7-1.2c0.4,0,0.6,0,1.2,0.1c0.2,0,1.1,0,2.8-0.2c3.1-0.5,3.2-1.2,4.6-1c0.3,0,1,0.1,1.6-0.2
		c0.1,0,0.6-0.3,0.6-0.6c0-0.3-0.7-0.4-1.1-0.5c-0.8-0.1-1.5,0.2-1.8,0.3c-0.9,0.4-1.3,0.2-4.2,0.2c-4.5,0.1-4.6,0.6-6.1,0.2
		c-1.7-0.5-2.7-1.5-2.9-1.8c-1-1.1-1.2-2.1-1.5-3.2c-0.6-2-0.4-0.6-2.4-6s-1.4-4.7-2.3-6.4c-0.5-1.1-1.3-2.2-1.5-4
		c-0.1-1,0-1.8,0-2.5c0-0.4,0.3-2.1,1.4-4.7c0.8-1.9,1.7-3.4,2.2-4.4c1.4-2.4,1.7-2.5,1.9-3.5c0.1-0.5,0.2-1.3,0.9-2.2
		c0.3-0.4,0.9-1,1.1-0.9c0.3,0.1,0.2,0.7,0.2,0.9c-0.2,2.3,1.5,5.1,3.7,8.7c0.3,0.5,0.8,1.3,1.6,1.4c0.4,0.1,1,0,1.1-0.3
		c0.2-0.4-0.3-0.9-0.4-1.1c-1.2-1.5-2.1-3.1-3.3-4.7c-1.3-1.7-1.2-3.5-1.2-6.1c0-2,0.3-3.9,0.6-5c0-0.2,0.6-1,0.4-1.9
		c0-0.2-0.2-0.9-0.8-1.3c-0.4-0.2-0.7-0.2-1-0.2c-1.4-0.3-1.4-4.1-1.4-6.4c-0.1-4.9-0.3-4-0.2-6.4c0.1-1.6,0.2-1.8,0.8-7
		c0.4-3.3,0.6-5,0.7-6.1c0.1-2.6,0-2.9,0.1-6.5c0.1-2,0.2-3.5,0.3-4.9c0.2-2.2,0.3-3.8,0.5-5.9c0.1-1.2,0.3-2.6,0.3-2.6v-0.1
		c0.3-3.4,0.6-6,0.9-8.8c0.4-4.3,0.4-5.9,0.3-6.8c-0.1-3.8-0.6-5.8-1-8.7c-0.5-3.6,0.1-2.4-0.2-11.7c-0.1-5.1-0.5-11-1.7-12.6
		c-0.1-0.1-0.6-0.7-0.5-1.4s0.9-1.2,1.1-1.3c3.3-2.2,5.7-5.3,8.8-7.6c4.4-3.3,7.5-6.2,9.2-7.8c3.5-3.3,5.2-5,6.4-7.2
		C121.2,150.9,123.3,146.6,121.9,141.2z M91.6,276.7c-0.2,0.2-0.4,0.3-0.7,0.5c-0.5,0.3-0.8,0.6-1.9,1.4c-1.9,1.3-2.3,1.1-3,1.8
		c-0.1,0.1-0.4,0.4-0.8,0.4c0,0-0.4,0-0.6-0.2c-0.3-0.4,0.3-1.2,0.4-1.3c0.2-0.3,0.4-0.4,1.5-1c0.5-0.3,0.9-0.5,1.7-0.9
		c0.6-0.3,1.2-0.5,1.7-0.9c0.4-0.3,0.8-0.6,1.2-0.6c0.1,0,0.6,0.1,0.6,0.1s0.1,0.2,0.1,0.3C91.9,276.5,91.8,276.6,91.6,276.7z
		 M62,325.5c-1.3,0.6-4.4,0.6-5.7,0.6c-0.9,0-0.9-0.1-2.2-0.1c-3.5,0-3.8,0.3-5.1,0.1c-1.8-0.3-4.1-1.4-4.4-2.9
		c-0.1-0.4,0.2-1.2,0.8-2.8c0.8-2.1,1-1.9,1.2-2.7c0.4-1.5-0.2-1.8-0.1-4.2c0.1-1.7,0.1-2.6,0.8-3.2c0.6-0.5,1.6-0.6,3.5-0.8
		c2.1-0.2,2.9-0.1,4.8-0.4c0.8-0.2,1.5-0.4,1.9-0.5l0.3,0.4c0.1,0.2,0.3,0.5,0.6,0.8c0,0,0.5,0.6,1,1.2c0.9,1.1,3.1,3.5,3.1,3.6
		C64.9,317.2,65.2,324,62,325.5z M94.3,321.5c0.7-0.1,2.1-0.3,2.8,0.3c0,0,0.5,0.5,0.4,0.9c-0.2,0.6-1.1,0.8-1.6,0.9
		c-3.1,0.8-6,2.1-8.5,2.3c-0.3,0-0.8,0-1.4-0.2c-0.4-0.2-0.7-0.4-0.9-0.6c0.1-0.3,0.4-0.6,0.8-0.9c0.5-0.2,1-0.2,1.3-0.2
		c0.9,0,1.3-0.4,3-1.2C92.1,322.1,93,321.7,94.3,321.5z M93.6,175.4c-0.3,0.5-1.5,1.8-2.9,1.7c-0.2,0-0.7-0.1-1-0.5
		c0,0-0.1-0.2-0.1-0.4c0.1-0.3,0.4-0.4,0.6-0.5s2-0.9,2.8-1.3c0.1,0,0.3-0.2,0.5-0.1s0.3,0.3,0.4,0.5
		C93.8,175,93.7,175.3,93.6,175.4z M120.7,148.6c-0.3,1-1,2.5-2.1,4c-0.9,1.3-2.1,2.5-2.4,2.8c-1.3,1.3-1.8,1.6-2.6,2.7
		c-0.4,0.6-0.6,0.9-1.1,1.4c-0.7,0.6-1.3,0.9-2.3,1.4c-1.2,0.6-2.2,1.1-3.1,1.9c-1.2,1-0.9,1.3-2.2,2.5c-1.1,1.1-1.4,0.9-2.8,2.1
		c-1.8,1.5-1.5,1.8-2.9,2.9c-0.5,0.4-2.1,1.5-4.2,1.9c-1.3,0.3-2.5,0.2-2.8,0.2c-0.5,0-0.9,0-1.1-0.1c-1-0.1-1.6-0.3-1.9-0.4
		c-1.6-0.5-2.9-0.6-5.4-1.3c-2.3-0.6-4.3-1.4-8.1-2.8c-5-1.9-7.5-2.9-8.8-3.9c-0.3-0.2-1.6-1.5-4.3-4.1c-2.3-2.3-2.8-2.8-3.4-3.8
		c-0.7-1-0.4-0.9-1.9-3.8c-0.9-1.7-1.2-2.1-1.5-3.1c-0.1-0.3-0.5-1.5-0.4-3.1c0-1.8,0.6-3.1,1.5-5.2c1.8-4.2,2.7-6.3,3.3-7
		c1.3-1.6,2.9-2.7,6.2-4.9c0.4-0.3,1.2-0.8,2.3-0.9c1-0.1,1.9,0.2,2.3,0.3c5.4,1.8,8.1,2.8,10.4,4.2c2.1,1.3,3.5,2.2,4.2,3.2
		c0,0,0.5,0.5,1.5,1.5c0.2,0.2,0.5,0.5,0.8,0.5c0.2,0,0.4-0.2,0.5-0.3c0.9-1.1,1.3-1.7,1.6-2.1c1.2-2,3.6-2.4,4.4-3.7
		c0.1-0.1,0.2-0.4,0.6-0.6c0.4-0.2,0.9-0.3,1-0.3c1.6-0.1,2.7-0.6,5.6-0.7c3.1-0.1,7.3-0.2,11.3,1.8c3.9,2,5.6,5,6.4,6.3
		C119.6,139.3,122.3,143.9,120.7,148.6z"/>
	<polygon points="74.2,273.8 75.1,274.5 75.9,274.5 75.9,273.8 75.9,272.7 75.1,272.2 74.2,272.7 	"/>
	<polygon points="78.6,264.6 79.3,264.6 79.6,264.1 79.1,263.7 76.8,263.3 74.2,262.9 71.7,262.3 68.7,261.1 65.4,259.8 63.7,259.2 
		62.7,259 62.3,259.5 62.7,260 70.9,263.3 75.1,264.4 77.2,264.6 	"/>
	<path d="M47.2,283c0.7,0.9,2,2.3,4.2,3.6c0.1,0.1,0.3,0.4,0.7,0.6c0.5,0.2,1.3,0.3,1.6,0c0.2-0.2,0.2-0.5,0.1-0.8
		c-0.2-0.4-0.6-0.5-1.2-0.7c0,0,0,0-1.6-0.9c-1.2-0.6-1.9-1.4-2.3-1.8c-1.2-1.2-1.7-2.4-1.8-2.7c-0.5-1.1-0.3-1.5-1-3.2
		c-0.3-0.6-0.3-0.8-0.5-1.2c-0.2-0.5-1.2-3-0.4-5.6c0.4-1.2,1-1.9,2.1-3.2c1.7-2.1,3.6-3.3,4.7-4c1.3-0.8,4.3-2.8,6.3-2.8
		c0.1,0,0.8,0,1.6-0.3c0.5-0.2,1.3-0.6,1.2-0.8c-0.1-0.2-0.9-0.3-1.2-0.3c-1.9,0-3.4,0.8-4.7,1.4c-1.2,0.5-2.1,1.2-4,2.5
		c-1.8,1.3-2.9,2-4.2,3.2c-1.4,1.3-2.2,2.1-2.6,3.2c-0.5,1.3-0.3,2.3-0.1,3.4C44.9,278.1,45.3,280.7,47.2,283z"/>
	<path d="M251.8,301.7c-0.2-0.8-0.9-3.1-3-5.1c-0.7-0.6-0.8-0.6-1.3-1.2c-1-1.2-1.6-2.7-1.8-3.4c-0.1-0.4-0.2-0.5-0.3-0.8
		c-0.4-0.9-1-1.6-1.3-1.8c-2.8-2.9-4.3-4.5-5.3-5.6c-1-1-1.3-1.5-2.2-2.4c0,0-0.6-0.6-1.4-1.3c-0.3-0.2-0.5-0.4-0.8-0.6
		c0,0-0.3-0.2-0.6-0.4c-0.6-0.4-1.4-1-2.6-1.1c-0.2,0-0.8-0.1-1.6-0.2c-0.8-0.2-1-0.3-1.1-0.4c-0.6-0.4-0.6-1.2-0.6-1.4
		c-0.1-1.9-1.1-4.8-1.2-5.2c-1-2.8-3.7-4.9-4.1-5.2c-0.6-0.4-1.2-1-2.4-2.1c-1-0.9-1.5-1.4-1.4-2c0.1-0.7,0.7-1.1,1-1.3
		c0.6-0.4,2.9-2.9,7.6-8c1.1-1.2,3.6-4.3,4.3-8.8c0.2-1.3,0.7-4.8-1.3-8.4c-0.6-1-0.9-1.3-2.1-2.8c-2.8-3.6-3.7-6-5-8.3
		c-2.7-4.8-6.6-7.9-7.9-9c-2-1.6-7.6-6-16.1-7.2c-0.3,0-1.4,0-2.8-0.3c-2.1-0.3-2.7-0.7-4.1-1c-1.9-0.4-3.4-0.1-5.7,0.2
		c-2.6,0.4-4.7,1.1-5.3,1.3c-2.4,0.8-2.8,1.3-4.4,1.5c-1.9,0.2-3.5-0.4-3.9-0.6c-0.7-0.3-1.1-0.5-2.8-1.8c-2.1-1.5-3.2-2.3-3.3-2.4
		c-2.4-1.9-6-5.9-8.3-10.8c-0.9-1.8-1.2-3-2.6-4.9c-0.8-1.1-1.8-2.4-3.6-3.5c-1.9-1.2-2.1-0.6-5.3-2.3c-0.9-0.5-1.6-0.9-2.7-1
		c-0.1-0.3-0.2-0.6-0.3-1.1c-0.2-1.1,0.2-1.9,0.2-2.4c0.2-3.5-0.4-5.5-0.8-8.7c-0.1-0.6-0.2-3.1-0.5-8.1c-0.2-2.9-0.3-5-0.4-7.9
		c-0.1-1.9-0.1-2.3-0.3-8.5c-0.1-3.7-0.2-5.6-0.2-5.7c-0.5-8.3-1.8-8.4-1.3-12.8c0.2-1.7,0.7-4.8,1.7-8.1c0.4-1.3,0.5-1.4,0.8-2.5
		c0.9-3.2,0.5-4,1.2-7.3c0.4-1.8,0.8-3.3,1.4-5.1c0.9-2.8,1-2.4,1.2-3.6c0.8-3.4-0.3-4.5,0.6-7.2c0.2-0.5,0.3-0.8,2.1-3.6
		c4.7-7.2,5.5-8.3,6.6-9.4c1.6-1.7,2-1.7,4.3-3.8c1.2-1,5.7-5.1,9.3-10.5c1.6-2.4,4.7-7.1,6.1-13.7c0.8-3.6,2-9.7-0.8-16.6
		c-0.8-1.8-2.7-6.3-7.7-10.3c-1.8-1.5-6.5-5.1-13.7-6c-4.3-0.6-7.6,0.1-10.4,0.6c-2.3,0.4-6.7,1.3-11.3,4c-2,1.2-5.4,3.1-7.7,6.5
		c-0.3,0.4-0.2,0.3-3.5,6.1c-0.6,1.1-0.8,1.4-0.9,1.8c-0.3,1-0.2,1.7-0.7,1.9c-0.2,0.1-0.7,0.2-1.4-0.2c0,0-2.5-1.3-2.6-1.3
		c-3-1.5-8-2.4-8.6-2.5c-4.3-0.8-7.3-1.3-11-0.4c-3.3,0.8-5.5,2.1-6.6,2.8c-1.7,1.1-3.6,2.7-6.1,6c-3.4,4.6-6.1,8.2-6.6,13.6
		c-0.6,6.4,2.2,11.3,3.3,13.1c0.4,0.7,2.7,3.3,7.3,8.4c4.5,4.9,5.9,6.3,8.4,7.6c1.9,1,3.7,1.5,7.3,2.4c1.6,0.4,5.3,1.3,10.6,1.9
		c6.7,0.8,6.5,0,11.5,0.9c3,0.5,5.9,1.3,9.4,2.2c3.9,1,2.6,0.9,4.5,1.3c1.6,0.4,2.3,0.5,3,1c0.9,0.8,1.2,2.3,0.5,3.3
		c-0.7,1.1-2,0.6-3.8,2.1c-1,0.8-1.8,1.4-1.7,2.2c0,1.1,1.3,2.2,2.6,2.4c1.5,0.2,2.8-1,3.5-0.4c0.2,0.1,0.3,0.3,0.3,0.5
		c0.2,0.6-0.1,1.1-0.2,1.3c-0.7,1.1-0.4,3.2-1.7,8.8c-0.5,2-0.5,1.7-0.9,3.5c-0.9,3.8-1.7,7.2-1.3,11.1c0.2,2.4,0.7,2.7,1.2,7.1
		c0.2,1.5,0.3,2.7,0.4,3.8c0.3,3.9,0.4,6.6,0.5,12.7c0.2,9.8,0.3,10.2,0.4,11.2c0.5,5.1,0.7,7.6,0.8,8.2c0,0,0.3,1.9,0.4,5.2
		c0,1,0,1.4-0.1,1.9c-0.1,0.2-0.1,0.4-0.2,0.5c-0.1,0-0.1,0-0.2,0c-1.2-0.2-1.3-0.5-1.9-0.6c-1.6-0.1-3.1,1.7-3.8,3.1
		c-0.2,0.5-1,2.1-0.2,3.8c0.6,1.5,2.1,2.4,2.6,2.7c1.2,0.8,1.8,0.7,2.2,1.4c0.4,0.8,0,1.8-0.8,2.5c-0.4,0.3-0.9,0.2-1.1,0.6
		c-0.2,0.3,0.1,0.5,0.2,1c0,0.6-0.5,1-0.7,1.3c-0.3,0.3-1.2,1.8-2.9,4.8c-1.1,1.8-1.8,3.2-2.3,5c-0.2,1-0.5,2-0.4,3.4
		c0.1,1,0.3,2.6,1.7,4c1.5,1.4,4,2.3,4.9,1.6c0.3-0.2,0.4-0.6,0.4-0.9c-0.1-0.4-0.5-0.6-0.9-0.8c-0.5-0.3-0.9-0.4-1.2-0.5
		c-0.9-0.4-1.4-1.1-1.9-1.8c-0.3-0.4-0.7-1.2-0.9-2.3c-0.2-1.2,0.1-2.2,0.6-3.4c1-2.4,2-3.2,3.8-6.2c0.5-0.8,1-1.5,1.4-2.4
		c0.2-0.3,0.4-0.7,0.6-1c0.1-0.2,0.2-0.5,0.6-0.7c0.1-0.1,0.2-0.1,0.4-0.1c0.2,0.1,0.3,0.4,0.3,0.6c0.1,0.4,0,0.5,0.1,0.9
		c0,0.4,0.2,0.7,0.2,0.9c0.3,0.8,0,2-0.2,2.8c-0.1,0.7-0.2,1.5-0.3,3.1c-0.1,2.1,0.2,2.2,0.1,4.3c0,1.7-0.2,1.6-0.4,4.5
		c-0.2,1.9-0.2,2.8-0.2,4.2c0,1.2,0.1,2.5,0.6,4.3c0.6,2.2,1.5,3.8,2.1,4.7c1.2,2,1.5,1.8,2.1,3.2c0.3,0.7,1,2.6,0.3,4.7
		c0,0.1-0.3,0.5-0.6,1.1c0,0-0.1,0.2-0.2,0.3c-0.3,0.7-0.5,1.5-0.6,2c-0.2,0.9-0.3,1.7-0.4,2c-0.1,0.9-0.2,1.7-0.2,2.9
		c-0.1,2.4-0.1,3.5,0.2,4.6c0.2,0.8,0.7,1.6,1.6,3.1c0.7,1.2,1.7,2.7,3.1,4.6c1.7,2.3,2.2,2.7,3.7,4.8c0.7,1,1.1,1.9,2.1,3.1
		c0.9,1,1.3,1.4,1.7,1.8c0.5,0.4,0.9,0.6,1.2,1.1c0.1,0.2,0.4,0.8,0.2,1.3c-0.2,0.4-0.4,0.4-0.5,0.9c-0.1,0.2,0,0.3,0.1,0.9
		c0.1,0.5-0.1,0.6,0.1,0.8c0.1,0.2,0.4,0.3,0.7,0.2c0.5-0.1,0.7-0.8,0.7-1c0.1-0.2,1.2-1.8,3.5-5c0.7-1,0.7-0.9,3.4-4.1
		c1.2-1.4,2.2-2.9,3.5-4.3c0.4-0.4,1.3-1.4,1.2-2.4c0-0.2-0.1-0.8-0.6-1c-0.4-0.1-0.8,0-1.1,0.2c-0.3,0.3-0.4,0.6-0.4,0.8
		c-0.1,0.5-0.6,1.1-1.6,2.3c-1.4,1.6-1.9,1.8-3.3,3.3c-1.2,1.3-2.1,2.5-2.4,3c-1.4,1.9-1.3,2.2-1.7,2.2c-1.5,0.3-3.1-3.8-7.6-9.8
		c-3.2-4.2-3.7-3.9-4.7-6.2c0,0-1.7-3.9-0.7-10.5c0.3-1.8,0.8-2.5,1.1-2.9c0.6-0.8,0.9-0.8,1.3-1.5c0.1-0.1,0.8-1.6,0-3
		c-0.4-0.6-0.7-0.7-1.4-1.4c-0.5-0.5-0.9-1.1-1.6-2.6c-1.3-2.7-2.3-4.8-2.7-7.7c-0.2-1.1-0.2-2,0.1-6.3c0.7-8.6,1.2-9.6,0.9-13.5
		c-0.1-1.2-0.5-3.1-1.3-6.9c-0.3-1.3-0.9-4.3-1.9-4.3c-0.4,0-0.6,0.6-1.5,0.9c-0.1,0-1.1,0.3-1.8-0.1c-0.6-0.4-0.5-1.3-0.4-2.8
		c0.2-1.3,0.3-2,0.9-2.5c0.6-0.4,1.2-0.5,1.5-0.5c1.2-0.1,2.2,0.4,2.9,0.8c2.2,1.1,2.4,0.5,4.7,1.5c0.3,0.1,2.7,1.2,4.7,3.1
		c1.4,1.4,1.5,2.1,3.4,5.4c3.1,5.4,4.6,8.2,5.9,9.3c0.7,0.6,2.6,2.2,2.1,3.3c-0.2,0.5-0.9,0.7-1.1,1.5c-0.1,0.5,0.1,1.2,0.5,1.3
		s0.8-0.6,2-1c0.4-0.1,0.9-0.3,1.5-0.3c1,0,1.2,0.6,3.1,1.6c0.9,0.5,1.2,0.5,1.5,0.9c0.5,0.7,0.3,1.5,0.2,1.8
		c-0.2,0.9-0.8,1.2-2.2,2.7c-1.9,2-2,2.7-1.9,3.1c0.1,0.4,0.4,1.1,0.8,1.1c0.8,0.1,1.1-1.6,3.3-4.3c1.2-1.5,1.5-1.5,2-2.5
		c0.2-0.4,0.3-0.8,0.8-1.1c0.6-0.4,1.3-0.3,2.1-0.3c1.4-0.1,2.8-0.6,5.8-1.8c0.2-0.1,0.6-0.2,1.2-0.3c0.8-0.1,1.3,0.1,1.5,0.1
		c1,0.2,3,0.3,6.9,0.4c3.6,0.1,3.3-0.2,5.5,0c1.2,0.1,3,0.3,5.1,1c2.2,0.8,2,1.3,6.4,3.6c2,1.1,2.5,1.2,3.5,2c1.2,0.9,1.8,1.7,3.1,3
		c1.9,2.1,2.7,2.6,3.9,3.8c1.5,1.5,1.7,2.2,5.5,8.4c3.6,5.8,4.1,6.5,4.4,8.3c0.2,1,0.5,3.6-0.8,6.3c-0.7,1.4-1,1.2-4.1,5.1
		c-2,2.5-3,3.7-3.5,4.6c-0.8,1.3-2,2.4-2.8,3.6c-0.3,0.5-0.7,1.2-1.4,1.2c-0.5,0-0.9-0.3-1.6-0.9c-1.6-1.4-2.5-2.4-2.5-2.4
		c-0.3-0.3-1.4-1.7-2.6-2.8c-2-1.9-2-1.5-3.8-3.2c-1.2-1.2-1.8-2.1-2.8-2.1c0,0-0.9,0-1.3,0.5c-0.4,0.5-0.1,1.1,0.2,1.5
		c0.4,0.4,1,0.5,1.3,0.6c1,0.2,1.9,1.1,3.7,2.9c2,2,3.2,3.8,3.7,4.3c2.6,3.2,3.9,2.6,7.3,5.7c3.3,3.1,7.5,8.9,6.8,12
		c-0.1,0.3-0.4,1.5,0.4,2.1c0.5,0.4,1.1,0.4,1.9,0.4c1.1,0.1,4,0.2,5.5,1.4c0.7,0.6,0.3,0.8,1.8,2.6c0.5,0.6,0.9,1,1.5,1.7
		c1.3,1.4,2,2.1,2.7,2.6c0.4,0.3,0.9,0.6,1.5,1.2c0.4,0.4,0.8,0.8,0.7,0.9c-0.2,0.2-1.8-0.3-3-0.9c-1.3-0.6-1.4-1-2.6-1.4
		c-0.8-0.3-1.8-0.7-2.4-0.3c-0.5,0.3-0.7,0.9-0.4,1.3s0.9,0,1.9,0.3s1.9,1,1.9,1.7c0,0.3-0.2,0.4-0.3,1c-0.1,0.5,0,1,0,1.3
		c0.4,2.5,0.6,3.8,0.7,4.1c0.3,1.1,0.2,3.1,0,7.2c-0.4,8-1.1,6.9-0.9,9.6c0.1,0.6,0.2,2.3-0.5,4.2c-0.3,0.7-0.6,1.5-1.5,2.2
		c-0.7,0.6-1.5,0.9-4.3,1.4c-2.1,0.4-3.1,0.6-4.6,0.7c-1.4,0.1-3,0.2-6.8,0.2c-4.6,0-7.5-0.2-10.4-0.4c0,0-1.3-0.1-5.7-0.7
		c-2.1-0.3-3.2-0.5-3.9-1.3c-0.5-0.5-0.6-1.1-0.6-2.9c-0.2-5.2-0.3-7.7-0.1-8.2c0.1-0.4,0.5-1.3,0-1.9c-0.3-0.3-0.8-0.5-1.2-0.4
		c-0.6,0.2-0.7,1.1-0.8,1.5c-0.1,0.5,0.1,0.8,0.2,1.3c0.2,1.2-0.1,1.6-0.1,2.9c0,1.1,0.3,1,0.5,2.4c0.2,1.7-0.2,1.6-0.2,4.2
		c0,1.2,0.1,1.9-0.5,2.5c-0.4,0.4-0.9,0.5-1.4,0.7c-4,1-3.2,1.1-4.6,1.3c-3,0.5-5.3,0.2-6.5,0c-1.7-0.2-2.5-0.3-3.3-0.8
		c-0.3-0.2-0.6-0.4-1.2-0.5c-0.8-0.1-1.2,0.1-1.9,0.2c-1.1,0.1-1.4-0.4-3-0.9c-1.3-0.4-1.3-0.1-3.6-0.5c-2.1-0.4-3.1-0.5-3.6-1
		c-0.9-0.8-0.7-1.9-0.7-4.1c-0.1-2.3-0.4-1.7-0.7-5.1c-0.5-5.3,0.2-6.3-0.4-8.9c-0.1-0.3-0.5-2-0.4-3.4c0-0.2,0.1-1.4,0.1-1.4
		s0.8-0.1,1.3,0c0.8,0.1,1.3,0.7,1.4,0.8c1.4,1.3,7.5,2.4,13.8,2.6c2.5,0.1,2.1-0.2,3.3,0c0.3,0.1,0.9,0.2,1.4-0.1
		c0.3-0.2,0.6-0.6,0.5-0.8c-0.1-0.3-0.8-0.3-1.4-0.3c-1.2,0-2.3-0.3-3.5-0.3c-1.6,0-4.1-0.6-9.2-1.7c-4.3-1-5.2-1.3-6-1.8
		c-1.7-1-2.6-2.1-3.2-2.8c-1.2-1.5-1.3-2.4-3-7.2c-1.7-5-1.9-4.9-1.8-5.8c0.1-1.8,0.1-3,0.1-5.4c0-0.6,0-1.2-0.3-1.3
		c-0.4-0.1-1.3,0.9-1.5,1.9c-0.2,0.8,0,1.5,0.2,2.1c0.3,1.3,0.2,2.7,0.3,4c0.4,4.2,0.2,4.1,0.4,5.5c0.4,2.9,0.6,4.4,1.4,5.3
		c2,2.2,2.5,2.6,2.5,2.6c0.2,0.1,0.6,0.4,0.9,0.9c0.3,0.6,0.2,1.2,0.2,1.4c-0.4,2.5,0.1,5.1,0.1,7.7c-0.1,1.9-0.1,4.3,0.3,7.3
		c0.2,1.9-0.2,3.9,0.3,5.8c0.1,0.4,0.4,1.5-0.3,2.2c-0.3,0.3-0.6,0.4-0.9,0.6c-0.9,0-3.3,0.3-5.1,0.1c-0.7-0.1-1.5,0-2.2-0.3
		c-0.1,0-0.4-0.1-0.6-0.1c0,0-0.4,0.1-0.5,0.4c0,0,0,0.2,0.1,0.4c0.1,0.1,0.3,0.1,0.4,0.2c0.3,0.1,0.4,0.3,0.7,0.6
		c0.1,0.1,0.7,0.7,1.5,0.8c0.3,0.1,0.5,0.1,0.7,0c1,0,3,0,4.5,0.3c0.6,0.1,1.3,0,1.9,0.2c0.1,0,0.3,0.1,0.6,0c0,0,0.3-0.1,0.4-0.4
		c0-0.1-0.1-0.2-0.1-0.3c0-0.1,0-0.2,0.1-0.3c0.1-0.1,0.3,0,0.6,0c0.4,0.1,0.6,0,0.8,0c0.7,0,1.4,0.6,2.4,1.1
		c0.4,0.2,0.8,0.3,1.5,0.6c1.3,0.4,2.5,0.6,4.3,0.8c1.8,0.2,3,0.2,5.9,0.4c3.3,0.2,4.4,0.3,6.6,0.4c0.6,0,1.3,0.1,2.3,0.1
		c0.7,0,2.1,0.1,3.7-0.4c1.5-0.4,2.5-1.1,3.2-1.5c0.6-0.4,0.8-0.6,1.3-0.9c0.2-0.1,0.4-0.2,0.8-0.3c0.4-0.1,0.6-0.1,0.8,0
		c0.6,0,1,0.2,1.1,0.2c2.8,1.1,9.6,1.6,9.6,1.6c0.9,0.1,1.9,0.2,3,0.2c0.8,0,1.4,0,1.8,0c1,0,1.7-0.1,1.9-0.1
		c2.3-0.2,4.7,0.1,8.9-0.1c2.1-0.1,3.5-0.2,5-0.6c0.3-0.1,1.1-0.3,2.3-0.5c1-0.2,1.3-0.4,1.9-0.3c0.8,0.1,1.5,0.3,1.7,0.4
		c0.4,0.2,0.4,0.2,0.7,0.4c0.6,0.2,1.1,0.2,1.9,0.1c0.7,0,1.3,0,2,0c2.9,0,4.3,0,4.7,0c0.2,0,0.7,0.2,1.2,0c0.1,0,0.5-0.2,0.7-0.5
		c0.3-0.5,0.1-1.1-0.3-1.4c-0.1-0.1-0.3-0.1-0.8-0.1c-0.7,0-1.1,0-1.6,0.1c-1.3,0.2-2.4,0.1-4.4,0c-0.3,0-1.1-0.1-1.9-0.5
		c-0.5-0.2-0.7-0.4-0.8-0.6c-0.2-0.4-0.1-0.8,0-1c0.5-1.4,0.7-2.9,1.1-4.4c0.2-0.6,0.2-1.2,0.4-2.6c0.8-5.8,0.8-12.9,0.8-14.7
		c0-1.3,0-2.7,0-4c0-0.4,0.1-0.9,0-1.3c0-0.2-0.1-0.5,0.1-0.7c0.1-0.1,0.3-0.2,0.4-0.2s0.3,0,0.6,0.1c0.4,0.2,0.6,0.4,0.9,0.7
		c0.2,0.3,0.5,0.5,0.8,0.7c0.6,0.6,1.3,1.1,2.6,2.1c0.3,0.2,0.5,0.3,0.6,0.6c0.6,0.6,0.7,1.3,0.7,1.4c0.1,0.6-0.1,1-0.3,1.5
		c-0.3,0.8-0.4,1.9-0.6,4.1c-0.1,0.8-0.1,1.1,0.1,1.5c0.1,0.2,0.4,1,1.4,1.6c1.1,0.6,2.6,0.8,2.8,0.4c0.1-0.2,0-0.6-0.1-0.9
		s-0.2-0.3-0.3-0.5c0-0.1-0.2-0.6,0.2-1c0.1-0.1,0.2-0.2,0.5-0.2c0.2,0,0.4,0.2,0.5,0.3c0.1,0.2,0,0.4,0,0.5s0-0.1-0.1,1.9
		c-0.1,1.4-0.1,1.9-0.4,2c-0.1,0-0.2,0-0.5,0c-0.2,0-0.4,0.1-0.5,0.2c-0.2,0.3,0.2,1,0.8,1.1c0.1,0,0.2,0,0.7-0.2
		c1.1-0.4,1.2-0.5,1.3-0.5c0.3-0.3,0.4-0.6,0.5-1.1c0.2-1.5,0.3-2.2,0.3-2.5C252.2,304.3,252.2,303.2,251.8,301.7z M143.5,94.7
		c-0.9,0.4-1.7,0.5-2,0.5c-2.8,0.2-5.6-1.6-10.1-3c-1.9-0.6-3.7-1.2-6.2-1.5c-2.4-0.2-3.1,0.1-5.7,0c-2.2-0.1-4.1-0.4-7.9-1.2
		c-2.7-0.5-5.5-1.1-9.1-2.2c-3.7-1.1-5.6-1.7-7.5-2.8c-1.5-0.8-3.1-2.4-6.2-5.5c-5.2-5-5.6-6.3-5.7-6.8c-0.1-0.4-0.3-1.6-1.1-2.9
		c-0.6-0.9-1.1-1.3-1.7-1.9c-1.8-2-2.1-4.3-2.3-5.2c-0.2-1.5,0.1-2.9,0.9-5.5c0.3-0.9,0.9-3,2.1-5.7c0.6-1.2,1.4-2.9,2.8-5
		c1.3-1.8,2.7-3.9,5.4-5.8c0.8-0.6,2.7-1.9,5.2-2.8c6.2-2.1,12.3,0,15.9,1.2c0.7,0.2,7.8,2.6,9.1,4.9c0.1,0.2,0.6,1,1.6,1.3
		c0.1,0,1,0.3,1.6-0.1c0.4-0.3,0.3-0.8,0.3-1.7c-0.1-0.9,0-1.8-0.1-2.7c-0.4-2,1.8-7.1,5.8-11.2c1.7-1.7,4.6-4.1,8.9-5.9
		c2.1-0.9,6.4-2.7,11.8-2.3c1.7,0.1,3.7,0.5,7.7,1.2c2.6,0.5,3.9,0.7,4.8,1c6.6,1.8,10,8.8,11.1,10.9c1.9,3.9,2,7,2.3,13.2
		c0,0,0.3,8.3-2.4,11.5c-0.1,0.1-1,1.1-2.3,2.5c-1.1,1.2-1.4,1.3-1.8,1.9c-0.7,1.2-0.3,1.8-0.9,3c-0.3,0.8-0.8,1.2-2.1,2.5
		c-3.7,3.7-3.3,3.4-3.7,3.8c-2.2,2.1-2.6,2.4-4,3.6c-2.6,2.5-4.3,4.7-5.5,6.3c-2.4,3.2-3.7,4.8-4.4,6.6c-0.7,1.7-1.2,2.4-2.3,3.8
		C145.1,93.5,144.5,94.2,143.5,94.7z M248.6,302.1c-0.2,0.2-0.7,0.3-1,0.1c-0.3-0.1-0.3-0.4-0.3-0.7c-0.1-0.5,0-0.8,0.1-1.1
		c0.4-1.2,0.2-1.6,0.4-1.6C248.2,298.8,249.5,301.4,248.6,302.1z"/>
	<path d="M198.4,260.9c0.3,0.8,1.2,2.4,2.6,4.4c1.4,1.9,2.2,2.5,2.5,2.7c0.6,0.4,2.3,1.8,3.2,1.4c0.4-0.2,0.6-0.7,0.4-1.2
		c-0.1-0.5-0.7-0.7-1.1-0.9c0,0-1.6-0.9-3.3-2.7c-0.4-0.5-0.7-1-1.3-2.1c-1-2-0.9-2.5-1.9-4.5c-0.6-1.2-1-2.1-2-3.2
		c-0.9-1.1-1.2-1-2-2c-0.3-0.5-0.7-1-1.4-1.4c-0.3-0.1-0.7-0.3-1.1-0.1c-0.3,0.1-0.5,0.4-0.5,0.7c0,0.5,0.4,0.9,0.5,1
		c0,0,1.4,1.2,3.5,3.7C197.6,257.8,196.9,257.8,198.4,260.9z"/>
	<path d="M190.2,298.8c-1.1-0.2-2.3,0-2.3,0.3c0,0.1,0,0.2,1.8,0.9c1.4,0.5,2.3,0.9,3.6,1.1c1.2,0.2,2.6,0.5,4.3,0.3
		c1.2-0.1,1.8-0.4,4.6-1.6c5-2,4.5-1.8,5-2c1.5-0.7,1.6-0.8,6.3-3.4c3.4-1.9,3.7-2,4.5-2.6c2.1-1.5,3.5-3.1,4.2-3.8
		c1.6-1.8,1.8-2.5,2.9-3.5c0.2-0.2,0.5-0.6,1.1-1.4c0.3-0.5,0.5-0.7,0.4-1c-0.2-0.4-0.8-0.4-0.9-0.4c-0.1,0-0.7-0.1-1,0.3
		c-0.2,0.2-0.2,0.5-0.3,0.8c-0.1,0.5-0.5,0.8-0.9,1.2c-0.7,0.7-0.6,0.9-1.6,2.3c-0.3,0.3-1,1.3-2.1,2.4c-0.6,0.6-1.6,1.6-3.2,2.6
		c-1,0.7-1.4,0.8-3.9,2c-0.2,0.1-2,1-3.8,1.9c-4,2.1-4.1,2.6-6.4,3.5c-0.7,0.3-2.1,0.8-4.1,1.1c-1.9,0.3-3.2,0.6-4.6,0.2
		c-1.5-0.4-2.6-0.8-2.6-0.8C190.9,299,190.7,298.9,190.2,298.8z"/>
	<path d="M169.1,233.6c-0.1,0-0.5,0.1-0.9,0.4c-0.2,0.2-0.2,0.3-0.3,1c-0.2,0.7-0.2,0.7-0.3,1c-0.1,0.5-0.1,0.8,0.1,1.1
		c0.4,0.4,1.1,0.4,1.2,0.4c0.8,0,1.3-0.6,1.4-0.6c0.6-0.6,0.4-1.4,0.3-1.9c-0.1-0.4-0.2-0.8-0.6-1
		C170,233.8,169.6,233.6,169.1,233.6z"/>
</g>
<path class="st7" d="M165.1,31.3c-4.1-4.2-10-6.5-15.9-5.7c-2.1,0.3-4,1.7-3.9,4.1c0,2,1.9,4.2,4.1,3.9c4-0.5,7.4,0.6,10.2,3.5
	C163.1,40.8,168.7,35,165.1,31.3z"/>
<path class="st8" d="M116.5,139.4c-2.3-3.9-6.3-6.8-10.8-7.4c-2.1-0.3-4.3,0.6-4.9,2.9c-0.5,1.9,0.7,4.6,2.9,4.9
	c2.7,0.3,4.6,1.5,6,3.8C112.3,148,119.1,143.9,116.5,139.4z"/>
<path class="st5" d="M69.3,296.1l-2.3-7c-0.7-2-2.8-3.3-5-2.7c-2,0.6-3.4,2.9-2.7,5c0.8,2.3,1.5,4.6,2.3,7c0.7,2,2.8,3.3,5,2.7
	C68.6,300.5,69.9,298.2,69.3,296.1z"/>
<path class="st9" d="M184.3,209.2c-8.5,0.2-16.1-2.6-21.4-7.6c-0.8-1.3-1.6-2.5-2.4-3.8c-1.2-2-2.5-3.9-3.9-5.7
	c-0.1-0.4-0.3-0.7-0.4-1.1c-0.5-1.6-1.7-2.3-3.1-2.5c-2.6-2.2-5.6-3.9-9.4-4.8c-5.4-1.3-7.5,6-2.1,7.3c2.9,0.7,5.2,2.2,7.1,4.1
	c1.7,4.3,4.3,8.1,7.6,11.3c1.3,2.1,2.7,4.1,4.3,5.7c6.8,6.6,17.1,7.9,26.1,4.1C190.6,214.5,188.3,209.1,184.3,209.2z"/>
<path class="st10" d="M254.4,326.6c-5.5,0.4-10.9,0.8-16.4,1.2c-12.5-1.1-25.1-0.5-37.6-0.2c-0.3,0-0.5,0-0.8,0
	c-11-0.7-22.4,0-33.5,0.4c-0.5-0.4-1.1-0.7-1.9-0.8c-17.7-2.3-35.6-0.5-53.3,0.6c-14.7,0.9-29.3,1.8-44,2.7c-0.8-0.4-1.8-0.6-3-0.4
	c-2,0.3-4.1,0.6-6.1,0.9c-7,0.7-14,0-20.7-2c-4.6-1.4-8.5,3.7-3.8,5.1c7.8,2.4,15.8,3.3,23.9,2.8c0.2,0,0.4,0,0.6,0
	c17.1-1.1,34.3-2.1,51.4-3.2c14.9-0.9,30.3-2.6,45.4-1.7c0.4,1.1,1.7,2,3.6,1.9c13.2-0.2,26.4-0.4,39.6-0.7c3,0.1,5.9,0.3,8.8,0.6
	c8.7,0.9,17.6,0.6,26.5,0l6.4,1c2.2,0.3,3.8-0.6,4.5-1.8c3.6-0.3,7.1-0.6,10.6-0.8C259.6,332.1,259.5,326.2,254.4,326.6z"/>
</svg>
